<svg width="77" height="76" viewBox="0 0 77 76" fill="none" xmlns="http://www.w3.org/2000/svg">
<rect x="0.792969" width="76" height="76" rx="38" fill="#FF5959"/>
<path fill-rule="evenodd" clip-rule="evenodd" d="M26.4458 46.4931C26.4458 48.6218 28.1714 50.3473 30.3 50.3473H48.2861C50.4147 50.3473 52.1402 48.6218 52.1402 46.4931V28.507C52.1402 26.3784 50.4147 24.6528 48.2861 24.6528H30.3C28.1714 24.6528 26.4458 26.3784 26.4458 28.507V46.4931ZM49.5708 46.4931C49.5708 47.2027 48.9956 47.7778 48.2861 47.7778H30.3C29.5904 47.7778 29.0152 47.2027 29.0152 46.4931V28.507C29.0152 27.7975 29.5904 27.2223 30.3 27.2223H36.7236V37.5143L39.8005 37.5144L41.8626 34.7561L43.9246 37.5144H47.0015L47.0014 27.2223H48.2861C48.9956 27.2223 49.5708 27.7975 49.5708 28.507V46.4931ZM39.293 27.2223H44.4319V34.0772L41.8626 30.6402L39.293 34.0774V27.2223Z" fill="#2D2D2D"/>
<mask id="mask0_679_82" style="mask-type:luminance" maskUnits="userSpaceOnUse" x="26" y="24" width="27" height="27">
<path fill-rule="evenodd" clip-rule="evenodd" d="M26.4458 46.4931C26.4458 48.6218 28.1714 50.3473 30.3 50.3473H48.2861C50.4147 50.3473 52.1402 48.6218 52.1402 46.4931V28.507C52.1402 26.3784 50.4147 24.6528 48.2861 24.6528H30.3C28.1714 24.6528 26.4458 26.3784 26.4458 28.507V46.4931ZM49.5708 46.4931C49.5708 47.2027 48.9956 47.7778 48.2861 47.7778H30.3C29.5904 47.7778 29.0152 47.2027 29.0152 46.4931V28.507C29.0152 27.7975 29.5904 27.2223 30.3 27.2223H36.7236V37.5143L39.8005 37.5144L41.8626 34.7561L43.9246 37.5144H47.0015L47.0014 27.2223H48.2861C48.9956 27.2223 49.5708 27.7975 49.5708 28.507V46.4931ZM39.293 27.2223H44.4319V34.0772L41.8626 30.6402L39.293 34.0774V27.2223Z" fill="white"/>
</mask>
<g mask="url(#mask0_679_82)">
</g>
</svg>
