<svg width="77" height="76" viewBox="0 0 77 76" fill="none" xmlns="http://www.w3.org/2000/svg">
<rect x="0.585938" width="76" height="76" rx="38" fill="#70CE88"/>
<path fill-rule="evenodd" clip-rule="evenodd" d="M43.7116 22.0834H30.7782C29.4065 22.0834 28.2944 23.2608 28.2944 24.7133V48.3824C28.2944 49.8348 29.4065 51.0123 30.7782 51.0123H48.1648C49.5366 51.0123 50.6486 49.8348 50.6486 48.3824V29.4284L43.7116 22.0834ZM30.7782 24.7133H40.7134V29.9731C40.7134 31.4255 41.8254 32.603 43.1972 32.603H48.1648V48.3824H30.7782V24.7133ZM43.1972 29.9731V25.2579L47.6504 29.9731H43.1972ZM43.561 35.618L38.2296 41.263L35.3821 38.2479L33.6258 40.1075L38.2296 44.9822L45.3173 37.4776L43.561 35.618Z" fill="#262626"/>
</svg>
