<svg width="76" height="76" viewBox="0 0 76 76" fill="none" xmlns="http://www.w3.org/2000/svg">
<rect width="76" height="76" rx="38" fill="#4D8DFF"/>
<path d="M48.204 27.7559C47.6501 28.3098 47.604 29.1714 48.0963 29.7868C50.3273 32.5871 51.4967 36.4182 50.4504 40.434C49.2349 45.1268 45.5576 48.6348 40.8956 49.5733C33.0487 51.1273 26.1712 45.0652 26.1712 37.4799C26.1712 31.2024 30.8639 26.0326 36.9414 25.2787V28.3867C32.1256 29.2022 28.5868 33.7103 29.3561 38.8954C29.9561 42.9112 33.2949 46.1422 37.3261 46.6346C42.9266 47.327 47.7117 42.9573 47.7117 37.4799C47.7117 35.5566 47.127 33.7872 46.1269 32.3101C45.6038 31.5408 44.4806 31.4947 43.819 32.1409L43.8036 32.1563C43.2805 32.6794 43.2343 33.4949 43.6344 34.1103C44.5575 35.5258 44.9268 37.3414 44.3883 39.2185C43.7882 41.3264 42.0188 43.0035 39.8648 43.4805C35.8644 44.3575 32.3256 41.3418 32.3256 37.4799C32.3256 34.6181 34.295 32.2332 36.9414 31.5408V34.8335C36.0183 35.372 35.4028 36.3413 35.4028 37.4799C35.4028 39.1723 36.7876 40.5571 38.48 40.5571C40.1725 40.5571 41.5572 39.1723 41.5572 37.4799C41.5572 36.3413 40.9418 35.3566 40.0186 34.8335V23.1862C40.0186 22.5861 39.5263 22.0938 38.9262 22.0938C30.6793 21.7861 23.5709 28.3405 23.1247 36.5567C22.5708 46.6346 31.4486 54.7431 41.6034 52.5582C47.5732 51.2812 52.189 46.7115 53.5276 40.7571C54.62 35.8951 53.2199 31.2793 50.4966 27.879C49.9273 27.1558 48.8503 27.1096 48.204 27.7559Z" fill="#37474F"/>
<mask id="mask0_679_52" style="mask-type:luminance" maskUnits="userSpaceOnUse" x="23" y="22" width="31" height="31">
<path d="M48.204 27.7559C47.6501 28.3098 47.604 29.1714 48.0963 29.7868C50.3273 32.5871 51.4967 36.4182 50.4504 40.434C49.2349 45.1268 45.5576 48.6348 40.8956 49.5733C33.0487 51.1273 26.1712 45.0652 26.1712 37.4799C26.1712 31.2024 30.8639 26.0326 36.9414 25.2787V28.3867C32.1256 29.2022 28.5868 33.7103 29.3561 38.8954C29.9561 42.9112 33.2949 46.1422 37.3261 46.6346C42.9266 47.327 47.7117 42.9573 47.7117 37.4799C47.7117 35.5566 47.127 33.7872 46.1269 32.3101C45.6038 31.5408 44.4806 31.4947 43.819 32.1409L43.8036 32.1563C43.2805 32.6794 43.2343 33.4949 43.6344 34.1103C44.5575 35.5258 44.9268 37.3414 44.3883 39.2185C43.7882 41.3264 42.0188 43.0035 39.8648 43.4805C35.8644 44.3575 32.3256 41.3418 32.3256 37.4799C32.3256 34.6181 34.295 32.2332 36.9414 31.5408V34.8335C36.0183 35.372 35.4028 36.3413 35.4028 37.4799C35.4028 39.1723 36.7876 40.5571 38.48 40.5571C40.1725 40.5571 41.5572 39.1723 41.5572 37.4799C41.5572 36.3413 40.9418 35.3566 40.0186 34.8335V23.1862C40.0186 22.5861 39.5263 22.0938 38.9262 22.0938C30.6793 21.7861 23.5709 28.3405 23.1247 36.5567C22.5708 46.6346 31.4486 54.7431 41.6034 52.5582C47.5732 51.2812 52.189 46.7115 53.5276 40.7571C54.62 35.8951 53.2199 31.2793 50.4966 27.879C49.9273 27.1558 48.8503 27.1096 48.204 27.7559Z" fill="white"/>
</mask>
<g mask="url(#mask0_679_52)">
</g>
</svg>
