<svg width="30" height="30" viewBox="0 0 30 30" fill="none" xmlns="http://www.w3.org/2000/svg">
<path d="M27.3633 0H2.63672C1.18465 0 0 1.55354 0 3.46154V26.5385C0 28.44 1.17938 30 2.63672 30H27.3633C28.8117 30 30 28.4517 30 26.5385V3.46154C30 1.56 28.8206 0 27.3633 0ZM26.9992 2.30769L15.0559 17.9872L3.00932 2.30769H26.9992ZM1.75781 26.0606V3.92838L10.2234 14.9468L1.75781 26.0606ZM3.00076 27.6923L11.4717 16.5715L14.4398 20.4348C14.7834 20.882 15.3379 20.8805 15.6801 20.4312L18.5742 16.6318L26.9992 27.6923H3.00076ZM28.2422 26.0605L19.8172 15L28.2422 3.93938V26.0605Z" fill="black" fill-opacity="0.5"/>
</svg>
