<svg width="40" height="40" viewBox="0 0 40 40" fill="none" xmlns="http://www.w3.org/2000/svg">
<path d="M8.86484 24.1726L7.4725 29.3704L2.38352 29.478C0.862656 26.6572 0 23.4297 0 20.0001C0 16.6836 0.806563 13.5561 2.23625 10.8022H2.23734L6.76797 11.6329L8.75266 16.1363C8.33727 17.3473 8.11086 18.6473 8.11086 20.0001C8.11102 21.4682 8.37695 22.8748 8.86484 24.1726Z" fill="#FBBB00"/>
<path d="M39.6507 16.2638C39.8804 17.4736 40.0001 18.7231 40.0001 20C40.0001 21.4319 39.8496 22.8286 39.5628 24.1759C38.5892 28.7605 36.0452 32.7638 32.5211 35.5968L32.52 35.5957L26.8134 35.3045L26.0058 30.2627C28.3442 28.8913 30.1717 26.7451 31.1344 24.1759H20.4398V16.2638H31.2904H39.6507Z" fill="#518EF8"/>
<path d="M32.5198 35.5957L32.5209 35.5967C29.0935 38.3517 24.7396 40 20 40C12.3835 40 5.76159 35.7429 2.38354 29.4781L8.86487 24.1726C10.5539 28.6803 14.9022 31.8891 20 31.8891C22.1912 31.8891 24.244 31.2967 26.0055 30.2627L32.5198 35.5957Z" fill="#28B446"/>
<path d="M32.766 4.60437L26.2869 9.90875C24.4638 8.76922 22.3088 8.11094 20.0001 8.11094C14.7869 8.11094 10.3572 11.467 8.75281 16.1362L2.23742 10.8022H2.23633C5.56492 4.38461 12.2704 0 20.0001 0C24.8528 0 29.3023 1.72859 32.766 4.60437Z" fill="#F14336"/>
</svg>
