<svg width="50" height="50" viewBox="0 0 50 50" fill="none" xmlns="http://www.w3.org/2000/svg">
<path d="M43.75 18.75H41.6667V12.5C41.6667 5.60625 34.1917 0 25 0C15.8083 0 8.33333 5.60625 8.33333 12.5V18.75H6.25C2.80556 18.75 0 20.8521 0 23.4375V45.3125C0 47.8979 2.80556 50 6.25 50H43.75C47.1944 50 50 47.8979 50 45.3125V23.4375C50 20.8521 47.1944 18.75 43.75 18.75ZM13.8889 12.5C13.8889 7.90417 18.8722 4.16667 25 4.16667C31.1278 4.16667 36.1111 7.90417 36.1111 12.5V18.75H13.8889V12.5ZM27.7778 34.8375V39.5833C27.7778 40.7333 26.5361 41.6667 25 41.6667C23.4639 41.6667 22.2222 40.7333 22.2222 39.5833V34.8375C20.5694 34.1146 19.4444 32.7854 19.4444 31.25C19.4444 28.9521 21.9361 27.0833 25 27.0833C28.0639 27.0833 30.5556 28.9521 30.5556 31.25C30.5556 32.7854 29.4306 34.1146 27.7778 34.8375Z" fill="black" fill-opacity="0.5"/>
</svg>
