<svg width="574" height="581" viewBox="0 0 574 581" fill="none" xmlns="http://www.w3.org/2000/svg">
<path d="M520.448 40.1162H189.375V495.087H520.448V40.1162Z" fill="#F5F5F5"/>
<path d="M520.448 40.1162H189.375V64.8482H520.448V40.1162Z" fill="#E0E0E0"/>
<path d="M204.384 52.4823C204.384 53.3643 204.033 54.2102 203.409 54.8338C202.786 55.4575 201.94 55.8079 201.058 55.8079C200.177 55.8042 199.333 55.4526 198.71 54.8298C198.087 54.2069 197.735 53.3632 197.731 52.4823C197.731 51.6003 198.082 50.7545 198.706 50.1308C199.329 49.5071 200.175 49.1568 201.058 49.1568C201.495 49.1549 201.928 49.2397 202.333 49.4061C202.737 49.5726 203.104 49.8175 203.414 50.1267C203.723 50.4358 203.968 50.8032 204.134 51.2075C204.301 51.6118 204.385 52.0451 204.384 52.4823Z" fill="#F5F5F5"/>
<path d="M229.26 51.7694C229.26 52.6514 228.909 53.4973 228.285 54.1209C227.662 54.7446 226.816 55.095 225.934 55.095C225.053 55.0913 224.209 54.7397 223.586 54.1169C222.963 53.494 222.611 52.6503 222.607 51.7694C222.607 50.8874 222.958 50.0416 223.582 49.4179C224.205 48.7942 225.051 48.4439 225.934 48.4439C226.371 48.442 226.804 48.5268 227.209 48.6933C227.613 48.8597 227.98 49.1046 228.29 49.4138C228.599 49.723 228.844 50.0903 229.01 50.4946C229.177 50.8989 229.261 51.3322 229.26 51.7694Z" fill="#F5F5F5"/>
<path d="M217.451 51.7694C217.451 52.6514 217.1 53.4973 216.476 54.1209C215.853 54.7446 215.007 55.095 214.124 55.095C213.243 55.0913 212.4 54.7397 211.777 54.1169C211.154 53.494 210.802 52.6503 210.798 51.7694C210.798 50.8874 211.149 50.0416 211.773 49.4179C212.396 48.7942 213.242 48.4439 214.124 48.4439C214.562 48.442 214.995 48.5268 215.399 48.6933C215.804 48.8597 216.171 49.1046 216.48 49.4138C216.79 49.723 217.035 50.0903 217.201 50.4946C217.368 50.8989 217.452 51.3322 217.451 51.7694Z" fill="#F5F5F5"/>
<path d="M556.084 87.3025C556.084 87.3025 542.892 81.8391 534.045 112.551C525.199 143.264 522.865 160.45 522.865 160.45C522.865 160.45 520.238 167.032 515.472 163.986C510.707 160.94 503.09 151.131 496.634 154.414C489.925 157.81 489.115 166.179 492.721 177.553C496.326 188.927 503.314 214.134 503.901 216.412C504.488 218.689 503.901 222.253 500.281 220.702C496.661 219.151 474.609 202.411 467.3 213.38C459.991 224.348 475.238 254.362 476.831 257.688C478.424 261.013 478.047 262.62 476.551 263.808C475.056 264.996 468.166 258.666 461.682 254.167C455.197 249.667 446.896 245.587 443.22 252.266C439.545 258.945 442.605 283.09 472.806 317.45L487.843 332.457L508.54 327.245C552.143 313.412 567.236 294.311 567.544 286.723C567.851 279.136 558.614 278.34 550.774 278.829C542.933 279.318 533.738 281.19 533.067 279.416C532.396 277.641 532.899 276.034 535.988 274.022C539.076 272.01 567.628 254.153 567.027 240.99C566.426 227.828 538.867 230.762 534.996 230.245C531.124 229.728 532.424 226.305 534.101 224.656C535.778 223.007 554.882 205.038 563.798 197.157C572.715 189.277 576.376 181.703 572.407 175.332C568.564 169.184 557.034 173.641 551.333 173.795C545.631 173.948 546.819 166.948 546.819 166.948C546.819 166.948 553.722 151.061 562.01 120.195C570.297 89.3286 555.805 87.2047 555.805 87.2047" fill="#EBEBEB"/>
<path d="M548.118 114.801C548.118 114.801 548.118 115.025 547.978 115.458C547.839 115.891 547.699 116.548 547.503 117.372C547.056 119.077 546.427 121.564 545.603 124.68C543.954 131.038 541.41 140.218 538.405 151.536C532.228 174.186 523.452 205.415 513.627 239.858C503.803 274.302 494.942 305.531 488.654 328.125L481.233 354.911L479.192 362.205C478.969 362.997 478.787 363.626 478.647 364.091C478.522 364.51 478.438 364.72 478.438 364.72C478.438 364.72 478.438 364.497 478.578 364.063C478.717 363.63 478.857 362.973 479.053 362.163C479.5 360.458 480.143 357.971 480.953 354.841C482.602 348.498 485.076 339.317 488.165 327.985C494.328 305.335 503.174 274.12 512.957 239.663C522.739 205.206 531.641 173.99 537.93 151.396C541.061 140.12 543.52 130.968 545.365 124.61C546.232 121.466 546.916 119.021 547.392 117.33C547.615 116.52 547.797 115.891 547.937 115.444C548.034 114.969 548.118 114.801 548.118 114.801Z" fill="#E0E0E0"/>
<path d="M506.78 168.555C507.113 168.945 507.386 169.383 507.59 169.854C508.079 170.72 508.736 171.978 509.547 173.557C511.14 176.701 513.222 181.116 515.444 186.021L521.034 198.596L522.739 202.411C522.99 202.848 523.179 203.319 523.298 203.808C522.979 203.407 522.707 202.971 522.488 202.509C521.999 201.642 521.342 200.371 520.559 198.792C518.994 195.62 516.954 191.191 514.745 186.286C512.537 181.382 510.553 177.12 509.044 173.711C508.373 172.216 507.786 170.916 507.311 169.91C507.082 169.48 506.904 169.025 506.78 168.555Z" fill="#E0E0E0"/>
<path d="M525.325 203.836C525.227 203.655 534.115 198.946 545.183 193.315C556.252 187.684 565.28 183.254 565.378 183.436C565.475 183.618 556.573 188.327 545.505 193.958C534.436 199.589 525.408 204.018 525.325 203.836Z" fill="#E0E0E0"/>
<path d="M507.856 256.095C508.343 255.893 508.855 255.762 509.379 255.704L513.572 254.907C517.107 254.222 521.957 253.258 527.323 252.015C532.69 250.771 537.469 249.486 540.949 248.536L545.058 247.404C545.558 247.241 546.073 247.128 546.595 247.068C546.157 247.331 545.687 247.537 545.198 247.683C544.247 248.019 542.864 248.494 541.145 249.08C537.707 250.17 532.913 251.54 527.547 252.769C522.18 253.999 517.289 254.907 513.725 255.466C511.936 255.732 510.497 255.941 509.533 256.039C508.977 256.118 508.415 256.137 507.856 256.095Z" fill="#E0E0E0"/>
<path d="M484.07 227.828C484.453 228.126 484.805 228.463 485.118 228.834C485.761 229.505 486.669 230.497 487.787 231.74C490.009 234.213 493.042 237.665 496.368 241.521C499.694 245.378 502.657 248.857 504.753 251.414C505.815 252.7 506.668 253.748 507.241 254.474C507.575 254.828 507.858 255.228 508.079 255.662C507.684 255.378 507.331 255.039 507.031 254.656C506.388 253.985 505.466 252.993 504.362 251.749C502.14 249.276 499.093 245.825 495.767 241.968C492.441 238.112 489.478 234.619 487.382 232.062C486.32 230.776 485.467 229.742 484.88 229.002C484.553 228.653 484.279 228.258 484.07 227.828Z" fill="#E0E0E0"/>
<path d="M462.786 271.982C463.273 272.367 463.718 272.803 464.113 273.281L467.551 276.984C470.346 280.142 474.343 284.53 478.648 289.42C482.952 294.311 486.809 298.74 489.59 301.996L492.832 305.866C493.26 306.316 493.635 306.813 493.95 307.347C493.471 306.953 493.027 306.518 492.623 306.048L489.199 302.331C486.404 299.173 482.407 294.772 478.103 289.895C473.798 285.019 469.927 280.575 467.16 277.32L463.904 273.449C463.482 272.999 463.108 272.508 462.786 271.982Z" fill="#E0E0E0"/>
<path d="M493.391 306.272C494.015 306.049 494.655 305.876 495.306 305.755L500.589 304.539C505.033 303.519 511.168 302.08 517.904 300.347C524.64 298.614 530.705 296.826 535.093 295.54L540.278 294.017C540.905 293.795 541.55 293.632 542.207 293.528C541.621 293.846 541.002 294.099 540.362 294.283C539.16 294.716 537.413 295.317 535.247 296.029C530.901 297.427 524.85 299.285 518.1 301.046C511.35 302.806 505.172 304.176 500.686 305.07C498.45 305.517 496.634 305.852 495.362 306.048C494.714 306.19 494.054 306.265 493.391 306.272Z" fill="#E0E0E0"/>
<path d="M103.385 36.0221C105.254 35.0308 107.305 34.4271 109.413 34.247C111.522 34.0669 113.645 34.3142 115.655 34.9742C119.673 36.319 123.33 38.5654 126.346 41.5414C132.328 47.1306 136.129 55.6959 138.421 63.5487C129.561 65.4909 120.253 60.5585 115.697 57.7639C108.486 53.3345 98.1443 40.9965 103.385 36.0221Z" fill="#EBEBEB"/>
<path d="M153.905 65.1274C151.765 64.1214 149.929 62.5684 148.581 60.6252C147.234 58.6819 146.424 56.4175 146.233 54.0609C146.089 51.7008 146.415 49.3355 147.192 47.1024C147.969 44.8693 149.182 42.8128 150.761 41.0521C151.4 40.166 152.225 39.4304 153.179 38.8969C154.133 38.3635 155.191 38.0451 156.281 37.9641C157.298 38.0556 158.273 38.4174 159.103 39.0119C159.934 39.6064 160.59 40.4121 161.005 41.3455C161.81 43.2293 162.104 45.2922 161.857 47.3259C161.312 54.3124 159.509 60.9495 153.905 65.1274Z" fill="#EBEBEB"/>
<path d="M167.769 87.4143C167.326 87.0634 166.923 86.6651 166.567 86.2266C165.84 85.4441 164.806 84.2704 163.576 82.7892C160.301 78.9438 157.565 74.6709 155.442 70.0879C153.267 65.4715 152.36 60.3594 152.815 55.2766C152.988 53.7471 153.335 52.2423 153.849 50.7914C154.018 50.2542 154.258 49.742 154.562 49.2683C153.971 51.244 153.559 53.2689 153.332 55.3186C153.042 60.2969 154.003 65.2687 156.127 69.7805C158.239 74.3055 160.881 78.5643 163.995 82.4679L166.79 86.0449C167.172 86.4586 167.501 86.9186 167.769 87.4143Z" fill="#E0E0E0"/>
<path d="M112.091 44.741C112.31 44.8402 112.52 44.957 112.72 45.0903L114.453 46.2081C115.948 47.2002 118.087 48.6534 120.714 50.4838C125.955 54.1447 133.096 59.3706 140.824 65.337C148.553 71.3034 155.442 76.8646 160.39 80.9307L166.217 85.7793L167.783 87.1766C167.972 87.3205 168.142 87.4898 168.286 87.6796C168.069 87.5755 167.867 87.444 167.685 87.2884L166.036 86.0448L160.068 81.3778C155.051 77.4095 148.119 71.9182 140.405 66.0077C132.691 60.0972 125.591 54.8294 120.421 51.0008L114.285 46.5015L112.636 45.2719C112.259 44.9226 112.077 44.7689 112.091 44.741Z" fill="#E0E0E0"/>
<path d="M150.915 78.0247C146.531 75.6447 141.644 74.3425 136.657 74.2259C131.67 74.1092 126.727 75.1815 122.237 77.354C119.973 78.4718 117.57 80.3861 117.751 82.9431C117.933 85.5002 120.546 87.0232 123.02 87.7498C128.114 89.1935 133.521 89.0989 138.562 87.4779C143.602 85.8568 148.051 82.7818 151.348 78.6395" fill="#EBEBEB"/>
<path d="M129.001 81.3502C129.441 81.0374 129.909 80.7661 130.399 80.5398C130.958 80.2265 131.543 79.9601 132.146 79.7434C132.927 79.4056 133.73 79.1208 134.55 78.891C135.528 78.5738 136.527 78.3263 137.54 78.1504C138.7 77.9222 139.871 77.7589 141.048 77.6614C143.756 77.4948 146.473 77.6213 149.154 78.0387C151.823 78.5065 154.437 79.2511 156.952 80.2604C158.996 81.0967 160.961 82.1162 162.822 83.3064C163.539 83.7371 164.233 84.2035 164.904 84.7037C165.432 85.0656 165.932 85.4674 166.399 85.9054C166.836 86.2277 167.23 86.6032 167.573 87.0232C167.489 87.149 165.742 85.6259 162.556 83.6837C160.682 82.5962 158.724 81.6617 156.7 80.8891C154.219 79.9298 151.649 79.2183 149.028 78.7653C146.404 78.3518 143.744 78.2067 141.09 78.3321C139.874 78.4578 138.714 78.5137 137.652 78.7373C136.652 78.8909 135.663 79.1056 134.689 79.3801C131.112 80.3582 129.071 81.5039 129.001 81.3502Z" fill="#E0E0E0"/>
<path d="M66.5181 141.965C66.5181 141.965 66.7278 142.216 67.0772 142.719L68.5446 144.913L74.3023 153.297C74.318 153.312 74.3304 153.331 74.3388 153.351C74.3473 153.371 74.3516 153.393 74.3516 153.415C74.3516 153.437 74.3473 153.459 74.3388 153.48C74.3304 153.5 74.318 153.519 74.3023 153.534H74.2045H58.119C58.0658 153.534 58.0145 153.514 57.9755 153.478C57.9366 153.441 57.913 153.392 57.9094 153.338C57.8954 153.303 57.8954 153.263 57.9094 153.227L58.2728 153.534C53.9146 157.483 48.6253 160.262 42.9001 161.61C39.6467 162.373 36.297 162.642 32.9636 162.407C29.3835 162.228 25.857 161.463 22.5242 160.143C18.9766 158.772 15.6734 156.837 12.7415 154.414C9.68776 151.862 7.10105 148.798 5.09702 145.36C0.792289 138.029 -0.697903 129.382 0.904453 121.033C2.48804 113.257 6.64865 106.241 12.7135 101.122C18.1162 96.6578 24.7368 93.9215 31.7152 93.2687C38.6935 92.6158 45.707 94.0765 51.8442 97.461C56.9457 100.324 61.2466 104.422 64.352 109.38C66.8963 113.397 68.5807 117.898 69.2992 122.598C69.383 123.115 69.453 123.618 69.5228 124.121C69.5927 124.624 69.5229 125.127 69.6207 125.602C69.6207 126.58 69.7325 127.517 69.7045 128.397C69.6751 130.031 69.5256 131.661 69.2573 133.273C68.8842 135.502 68.2897 137.688 67.4824 139.799C67.2029 140.511 66.9514 141.07 66.7977 141.406C66.7215 141.596 66.6279 141.778 66.5181 141.951C66.5722 141.759 66.6423 141.572 66.7278 141.392C66.8675 141.014 67.0772 140.469 67.3427 139.743C68.0876 137.628 68.6349 135.448 68.9778 133.232C69.2209 131.631 69.347 130.015 69.3551 128.397C69.3551 127.503 69.2713 126.58 69.2433 125.602C69.2433 125.127 69.2433 124.638 69.1315 124.205L68.8939 122.654C68.1642 118.015 66.4847 113.577 63.9606 109.617C60.6814 104.45 56.0687 100.262 50.6085 97.4952C45.1484 94.7287 39.0431 93.4859 32.9357 93.8979C25.7148 94.3668 18.8295 97.1166 13.2726 101.751C7.32655 106.784 3.25414 113.677 1.71504 121.313C0.13943 129.46 1.57985 137.902 5.76789 145.067C7.73038 148.441 10.2596 151.452 13.2446 153.967C16.1136 156.319 19.3346 158.205 22.7897 159.556C26.0546 160.858 29.5099 161.617 33.0196 161.806C36.2991 162.047 39.5962 161.797 42.8022 161.065C48.4536 159.769 53.6845 157.062 58.0073 153.199C58.0534 153.169 58.1082 153.154 58.1631 153.159C58.2181 153.163 58.2702 153.184 58.3114 153.221C58.3527 153.257 58.3808 153.307 58.3915 153.361C58.4022 153.415 58.3948 153.471 58.3706 153.52L58.0073 153.199C58.2476 153.128 58.4974 153.095 58.7479 153.101H62.7169H66.9095L74.2185 153.185L74.0788 153.45L68.4187 144.871L67.0212 142.635C66.6579 142.23 66.5181 141.965 66.5181 141.965Z" fill="#263238"/>
<path d="M37.799 125.546C39.1288 124.959 40.2572 123.995 41.0446 122.773C41.832 121.551 42.2438 120.125 42.2292 118.672C42.2609 117.724 42.1051 116.779 41.7709 115.891C41.4366 115.003 40.9304 114.19 40.2813 113.498C39.6322 112.806 38.8529 112.249 37.9881 111.859C37.1233 111.469 36.1899 111.253 35.2416 111.224C33.3362 111.283 31.5315 112.093 30.2221 113.478C28.9127 114.863 28.205 116.71 28.2539 118.616C28.2145 120.09 28.6165 121.543 29.4083 122.788C30.2001 124.033 31.3456 125.013 32.6981 125.602C21.9791 127.209 22.4683 138.848 22.4683 138.848L47.8053 138.974C47.8053 138.974 48.3643 127.139 37.799 125.546Z" fill="#52B6EC"/>
<path d="M493.685 0.377441H162.612V455.348H493.685V0.377441Z" fill="#FAFAFA"/>
<path d="M438.007 231.768H295.963V255.41H438.007V231.768Z" fill="#EBEBEB"/>
<path d="M309.897 249.262C309.001 249.262 308.126 248.996 307.381 248.499C306.636 248.002 306.056 247.294 305.713 246.467C305.371 245.64 305.281 244.73 305.456 243.852C305.63 242.973 306.062 242.167 306.695 241.534C307.328 240.9 308.135 240.469 309.013 240.295C309.892 240.12 310.802 240.209 311.629 240.552C312.457 240.895 313.164 241.475 313.662 242.22C314.159 242.964 314.425 243.839 314.425 244.735C314.421 245.934 313.943 247.084 313.094 247.932C312.246 248.78 311.096 249.258 309.897 249.262ZM309.897 240.557C309.067 240.557 308.257 240.803 307.567 241.263C306.878 241.724 306.34 242.379 306.023 243.145C305.706 243.911 305.623 244.753 305.785 245.567C305.946 246.38 306.346 247.127 306.932 247.713C307.518 248.299 308.265 248.698 309.079 248.86C309.892 249.022 310.735 248.939 311.501 248.621C312.267 248.304 312.922 247.767 313.383 247.078C313.843 246.388 314.089 245.578 314.089 244.749C314.089 243.637 313.648 242.571 312.861 241.785C312.075 240.998 311.009 240.557 309.897 240.557Z" fill="#263238"/>
<path d="M408.142 245.126C408.142 245.322 389.276 245.489 366.007 245.489C342.738 245.489 323.858 245.322 323.858 245.126C323.858 244.93 342.724 244.763 366.007 244.763C389.29 244.763 408.142 244.916 408.142 245.126Z" fill="#263238"/>
<path d="M493.685 40.0464H162.612V124.848H493.685V40.0464Z" fill="#263238"/>
<path d="M493.685 0.377441H162.612V25.1094H493.685V0.377441Z" fill="#455A64"/>
<path d="M174.295 16.0691C176.132 16.0691 177.621 14.5802 177.621 12.7435C177.621 10.9069 176.132 9.41797 174.295 9.41797C172.458 9.41797 170.969 10.9069 170.969 12.7435C170.969 14.5802 172.458 16.0691 174.295 16.0691Z" fill="#263238"/>
<path d="M202.539 12.0303C202.539 12.9123 202.189 13.7582 201.565 14.3819C200.941 15.0055 200.095 15.3559 199.213 15.3559C198.776 15.3577 198.342 15.273 197.938 15.1065C197.534 14.94 197.166 14.6951 196.857 14.386C196.548 14.0768 196.303 13.7095 196.136 13.3051C195.97 12.9008 195.885 12.4676 195.887 12.0303C195.905 11.1605 196.264 10.3325 196.886 9.72385C197.507 9.11522 198.343 8.77447 199.213 8.77466C200.082 8.77802 200.916 9.11994 201.537 9.72782C202.158 10.3357 202.517 11.1617 202.539 12.0303Z" fill="#263238"/>
<path d="M190.688 12.0304C190.688 12.4695 190.601 12.9042 190.432 13.3095C190.263 13.7148 190.016 14.0827 189.704 14.3918C189.392 14.701 189.022 14.9454 188.616 15.1108C188.209 15.2763 187.773 15.3596 187.334 15.3559C186.897 15.3578 186.464 15.273 186.059 15.1065C185.655 14.9401 185.287 14.6952 184.978 14.386C184.669 14.0768 184.424 13.7095 184.257 13.3052C184.091 12.9009 184.006 12.4676 184.008 12.0304C184.026 11.1605 184.385 10.3325 185.007 9.72389C185.628 9.11526 186.464 8.7745 187.334 8.77469C188.208 8.77076 189.049 9.10945 189.676 9.7181C190.303 10.3267 190.666 11.1569 190.688 12.0304Z" fill="#263238"/>
<path d="M493.685 25.1094H162.612V40.0464H493.685V25.1094Z" fill="#E0E0E0"/>
<path d="M276.384 180.795C276.384 180.991 265.302 181.158 251.634 181.158C237.966 181.158 226.87 180.991 226.87 180.795C226.87 180.599 237.952 180.432 251.634 180.432C265.316 180.432 276.384 180.641 276.384 180.795Z" fill="#263238"/>
<path d="M276.384 192.421C276.384 192.616 265.302 192.784 251.634 192.784C237.966 192.784 226.87 192.616 226.87 192.421C226.87 192.225 237.952 192.057 251.634 192.057C265.316 192.057 276.384 192.211 276.384 192.421Z" fill="#263238"/>
<path d="M254.96 202.02C250.311 202.385 245.647 202.507 240.985 202.383C236.3 202.509 231.612 202.388 226.94 202.02C236.297 201.535 245.673 201.535 255.03 202.02H254.96Z" fill="#263238"/>
<path d="M438.637 139.519H297.375V176.757H438.637V139.519Z" fill="#EBEBEB"/>
<path d="M317.303 194.614C317.306 196.069 316.877 197.492 316.07 198.703C315.264 199.913 314.116 200.858 312.772 201.416C311.428 201.974 309.949 202.12 308.522 201.837C307.095 201.554 305.784 200.854 304.755 199.825C303.726 198.796 303.025 197.486 302.742 196.058C302.459 194.631 302.606 193.153 303.164 191.809C303.722 190.465 304.666 189.318 305.877 188.511C307.088 187.705 308.511 187.276 309.967 187.278C311.912 187.278 313.779 188.051 315.154 189.427C316.53 190.803 317.303 192.669 317.303 194.614Z" fill="#E0E0E0"/>
<path d="M438.008 189.402C438.008 189.598 414.348 189.765 385.167 189.765C355.987 189.765 332.313 189.598 332.313 189.402C332.313 189.207 355.973 189.025 385.167 189.025C414.362 189.025 438.008 189.207 438.008 189.402Z" fill="#263238"/>
<path d="M387.18 199.882C387.18 200.092 374.909 200.245 359.788 200.245C344.667 200.245 332.383 200.092 332.383 199.882C332.383 199.673 344.639 199.519 359.788 199.519C374.937 199.519 387.18 199.686 387.18 199.882Z" fill="#263238"/>
<path d="M438.007 211.773H409.889V215.643H438.007V211.773Z" fill="#52B6EC"/>
<path d="M438.007 301.842H409.889V305.713H438.007V301.842Z" fill="#52B6EC"/>
<path d="M409.889 267.273C409.889 267.483 385.279 267.636 354.911 267.636C324.543 267.636 299.918 267.483 299.918 267.273C299.918 267.063 324.529 266.91 354.911 266.91C385.293 266.91 409.889 267.035 409.889 267.273Z" fill="#263238"/>
<path d="M409.889 276.663C409.889 276.872 385.279 277.026 354.911 277.026C324.543 277.026 299.918 276.872 299.918 276.663C299.918 276.453 324.529 276.3 354.911 276.3C385.293 276.3 409.889 276.467 409.889 276.663Z" fill="#263238"/>
<path d="M409.889 286.095C409.889 286.304 385.279 286.472 354.911 286.472C324.543 286.472 299.918 286.304 299.918 286.095C299.918 285.885 324.529 285.731 354.911 285.731C385.293 285.731 409.889 285.899 409.889 286.095Z" fill="#263238"/>
<path d="M335.261 303.085C335.261 303.281 327.589 303.449 318.114 303.449C308.639 303.449 300.966 303.281 300.966 303.085C300.966 302.89 308.653 302.722 318.114 302.722C327.575 302.722 335.261 302.876 335.261 303.085Z" fill="#263238"/>
<path d="M438.007 326.867H295.963V411.906H438.007V326.867Z" fill="#455A64"/>
<path d="M295.963 411.906L354.911 373.341L372.981 386.196L409.889 361.478L438.007 383.234V411.906H295.963Z" fill="#263238"/>
<path d="M377.048 366.187C382.605 366.187 387.11 361.683 387.11 356.127C387.11 350.57 382.605 346.066 377.048 346.066C371.49 346.066 366.985 350.57 366.985 356.127C366.985 361.683 371.49 366.187 377.048 366.187Z" fill="#263238"/>
<path d="M238.735 223.58H223.935V238.377H238.735V223.58Z" fill="#E0E0E0"/>
<path d="M256.735 223.58H241.935V238.377H256.735V223.58Z" fill="#EBEBEB"/>
<path d="M274.875 223.58H260.075V238.377H274.875V223.58Z" fill="#EBEBEB"/>
<path d="M238.735 241.256H223.935V256.053H238.735V241.256Z" fill="#EBEBEB"/>
<path d="M256.735 241.256H241.935V256.053H256.735V241.256Z" fill="#F5F5F5"/>
<path d="M274.875 241.256H260.075V256.053H274.875V241.256Z" fill="#E0E0E0"/>
<path d="M238.735 258.945H223.935V273.743H238.735V258.945Z" fill="#E0E0E0"/>
<path d="M256.735 258.945H241.935V273.743H256.735V258.945Z" fill="#EBEBEB"/>
<path d="M274.875 258.945H260.075V273.743H274.875V258.945Z" fill="#E0E0E0"/>
<path d="M292.333 59.0435L210.23 59.5449L210.732 141.634L292.835 141.133L292.333 59.0435Z" fill="#52B6EC"/>
<path opacity="0.2" d="M268.921 102.114C268.657 102.415 268.522 102.808 268.545 103.209C268.569 103.609 268.749 103.984 269.047 104.252C269.346 104.516 269.737 104.65 270.135 104.627C270.533 104.603 270.906 104.423 271.171 104.126C271.437 103.829 271.574 103.439 271.553 103.041C271.532 102.643 271.355 102.27 271.06 102.002C270.76 101.736 270.368 101.598 269.968 101.619C269.567 101.64 269.191 101.818 268.921 102.114Z" fill="black"/>
<path opacity="0.2" d="M272.583 100.521C271.98 100.073 271.251 99.8283 270.5 99.8223C269.748 99.8182 269.014 100.053 268.404 100.493C267.943 100.842 267.789 101.178 267.873 101.248C267.957 101.317 269.061 100.675 270.486 100.689C271.912 100.703 272.946 101.471 273.1 101.289C273.254 101.108 272.974 100.884 272.583 100.521Z" fill="black"/>
<path opacity="0.2" d="M255.659 102.63C255.315 102.429 254.906 102.37 254.519 102.467C254.133 102.564 253.799 102.808 253.591 103.147C253.486 103.316 253.417 103.503 253.386 103.699C253.355 103.894 253.363 104.094 253.41 104.287C253.457 104.479 253.541 104.66 253.659 104.82C253.776 104.979 253.924 105.114 254.094 105.215C254.262 105.319 254.45 105.389 254.645 105.42C254.841 105.451 255.041 105.443 255.233 105.396C255.425 105.349 255.607 105.265 255.766 105.147C255.926 105.03 256.06 104.882 256.162 104.712C256.369 104.369 256.433 103.958 256.338 103.568C256.244 103.178 256 102.841 255.659 102.63Z" fill="black"/>
<path opacity="0.2" d="M257.001 101.876C256.399 101.427 255.669 101.182 254.918 101.178C254.166 101.176 253.433 101.411 252.822 101.848C252.375 102.198 252.207 102.533 252.291 102.603C252.375 102.673 253.479 102.03 254.904 102.044C256.33 102.058 257.364 102.813 257.532 102.645C257.699 102.477 257.448 102.226 257.001 101.876Z" fill="black"/>
<path opacity="0.2" d="M265.665 109.379C264.837 106.83 263.751 104.372 262.423 102.044C262.987 104.661 263.82 107.213 264.91 109.659L266.056 112.565C266.248 112.886 266.345 113.254 266.336 113.627C266.336 113.837 266.015 113.921 265.637 113.963C264.846 113.998 264.066 114.168 263.331 114.466C264.113 114.598 264.911 114.598 265.693 114.466C265.91 114.461 266.125 114.433 266.336 114.382C266.481 114.335 266.613 114.257 266.725 114.153C266.836 114.049 266.922 113.922 266.979 113.781C267.09 113.235 267.012 112.668 266.755 112.174C266.406 111.28 266.042 110.316 265.665 109.379Z" fill="black"/>
<path opacity="0.1" d="M250.725 128.173C250.725 128.173 253.968 135.621 264.323 134.615V133.133V132.058V131.918C259.519 132.049 254.785 130.746 250.725 128.173Z" fill="white"/>
<path opacity="0.2" d="M273.142 89.8178L273.002 89.9016H272.918C268.494 91.6216 263.569 91.516 259.222 89.6082C253.632 87.3586 247.26 86.5481 245.96 87.7358C244.66 88.9235 244.814 94.4987 239.615 96.5387C239.615 96.5387 240.789 106.809 236.722 107.018L236.639 107.088C236.527 104.741 236.429 102.561 236.429 102.561C236.149 102.478 235.865 102.412 235.576 102.365C234.565 102.185 233.527 102.219 232.53 102.463C230.909 102.924 229.427 104.238 229.553 107.591C229.763 113.18 234.207 113.292 236.08 112.985L237.477 141.503L264.435 141.336C264.533 139.17 264.435 137.605 264.435 135.747V134.713C254.08 135.719 250.837 128.271 250.837 128.271C254.883 130.841 259.602 132.149 264.393 132.03V132.17C264.603 132.17 274.749 130.395 274.819 120.125C274.763 112.272 273.687 97.0557 273.142 89.8178ZM234.388 110.47C234.228 110.583 234.046 110.662 233.853 110.701C233.661 110.739 233.462 110.737 233.27 110.693C232.691 110.439 232.2 110.019 231.857 109.488C231.514 108.956 231.335 108.336 231.342 107.703C231.297 107.017 231.422 106.331 231.705 105.705C231.797 105.424 231.96 105.171 232.178 104.97C232.396 104.769 232.661 104.628 232.949 104.559C233.189 104.518 233.435 104.573 233.634 104.713C233.784 104.817 233.892 104.97 233.941 105.146C233.941 105.439 233.871 105.579 233.857 105.565C233.843 105.551 233.857 105.412 233.76 105.216C233.691 105.086 233.58 104.985 233.445 104.929C233.309 104.873 233.159 104.866 233.019 104.908C232.801 104.985 232.605 105.114 232.448 105.285C232.292 105.455 232.181 105.662 232.125 105.887C231.902 106.455 231.807 107.066 231.845 107.675C231.836 108.216 231.971 108.75 232.236 109.221C232.501 109.693 232.887 110.085 233.354 110.358C233.503 110.42 233.662 110.452 233.823 110.452C233.983 110.452 234.142 110.42 234.291 110.358C234.486 110.26 234.584 110.148 234.612 110.162C234.64 110.176 234.598 110.288 234.388 110.47ZM269.215 97.433C271.255 97.3212 272.681 98.3273 272.499 98.6766C272.317 99.0259 270.948 98.7884 269.299 98.8862C267.65 98.984 266.28 99.3613 266.084 98.998C265.889 98.6347 267.188 97.5308 269.215 97.433ZM250.139 97.7544C250.139 97.3352 251.634 97.1396 253.339 97.0697L255.491 96.9579C256.022 96.9579 256.386 96.9579 256.497 97.0837C256.609 97.2094 256.372 97.6426 255.785 97.95C255.039 98.2987 254.231 98.4935 253.409 98.5229C251.62 98.5927 250.125 98.2015 250.139 97.7544ZM256.162 104.741C256.06 104.911 255.926 105.059 255.766 105.176C255.607 105.293 255.425 105.378 255.233 105.425C255.041 105.471 254.841 105.48 254.645 105.448C254.45 105.417 254.262 105.348 254.094 105.244C253.924 105.142 253.776 105.007 253.658 104.848C253.541 104.689 253.456 104.507 253.41 104.315C253.363 104.123 253.355 103.923 253.386 103.727C253.417 103.532 253.486 103.344 253.59 103.176C253.799 102.836 254.132 102.592 254.519 102.495C254.906 102.399 255.315 102.457 255.659 102.659C255.992 102.869 256.231 103.201 256.325 103.584C256.419 103.967 256.36 104.372 256.162 104.713V104.741ZM257.559 102.673C257.392 102.84 256.372 102.072 254.932 102.072C253.493 102.072 252.472 102.813 252.319 102.631C252.165 102.449 252.403 102.226 252.85 101.876C253.461 101.439 254.194 101.204 254.946 101.206C255.697 101.21 256.427 101.455 257.028 101.904C257.448 102.226 257.601 102.561 257.531 102.645L257.559 102.673ZM261.403 118.085C259.488 117.442 258.608 115.933 258.831 115.849C259.055 115.765 259.977 116.855 261.626 117.4C262.666 117.637 263.722 117.8 264.785 117.889C264.281 118.2 263.709 118.38 263.118 118.415C262.528 118.449 261.938 118.335 261.403 118.085ZM266.993 113.781C266.936 113.923 266.849 114.05 266.738 114.153C266.627 114.257 266.495 114.335 266.35 114.382C266.139 114.433 265.924 114.461 265.707 114.466C264.925 114.598 264.127 114.598 263.345 114.466C264.058 114.151 264.818 113.957 265.595 113.893C265.973 113.893 266.266 113.767 266.294 113.558C266.303 113.184 266.206 112.816 266.014 112.496L264.868 109.589C263.778 107.144 262.945 104.592 262.381 101.974C263.727 104.323 264.828 106.805 265.665 109.38C266.042 110.386 266.406 111.35 266.755 112.3C266.989 112.756 267.072 113.275 266.993 113.781ZM271.185 104.126C270.92 104.423 270.547 104.603 270.149 104.627C269.751 104.65 269.36 104.516 269.061 104.252C268.763 103.984 268.582 103.609 268.559 103.209C268.535 102.808 268.671 102.415 268.935 102.114C269.205 101.818 269.581 101.64 269.981 101.619C270.382 101.598 270.774 101.736 271.073 102.002C271.369 102.27 271.546 102.643 271.567 103.041C271.588 103.439 271.451 103.829 271.185 104.126ZM273.058 101.331C272.904 101.513 271.884 100.731 270.445 100.731C269.005 100.731 267.985 101.471 267.831 101.29C267.677 101.108 267.831 100.884 268.362 100.535C268.972 100.095 269.706 99.8601 270.459 99.8643C271.209 99.8702 271.939 100.115 272.541 100.563C272.974 100.884 273.128 101.206 273.044 101.29L273.058 101.331Z" fill="white"/>
<path opacity="0.1" d="M233.354 110.358C232.887 110.085 232.501 109.692 232.236 109.221C231.97 108.749 231.836 108.216 231.845 107.675C231.807 107.065 231.902 106.455 232.124 105.886C232.181 105.662 232.292 105.455 232.448 105.284C232.604 105.114 232.8 104.984 233.019 104.908C233.159 104.865 233.309 104.872 233.445 104.929C233.58 104.985 233.691 105.086 233.759 105.216C233.857 105.411 233.76 105.551 233.857 105.565C233.955 105.579 234.011 105.439 233.941 105.146C233.892 104.97 233.784 104.817 233.634 104.713C233.435 104.573 233.189 104.518 232.949 104.559C232.661 104.628 232.396 104.769 232.178 104.97C231.96 105.17 231.797 105.423 231.705 105.705C231.422 106.331 231.297 107.017 231.342 107.703C231.335 108.335 231.514 108.956 231.857 109.488C232.2 110.019 232.691 110.438 233.27 110.693C233.462 110.736 233.661 110.739 233.853 110.7C234.046 110.662 234.228 110.583 234.388 110.469C234.598 110.288 234.64 110.12 234.612 110.106C234.584 110.092 234.486 110.204 234.291 110.302C234.146 110.373 233.989 110.414 233.828 110.424C233.667 110.433 233.506 110.411 233.354 110.358Z" fill="white"/>
<path opacity="0.2" d="M235.94 81.9371C236.093 81.8253 235.409 80.7634 233.983 80.3302C232.558 79.8971 231.384 80.3302 231.454 80.5678C231.524 80.8053 232.572 80.6516 233.76 81.0289C234.947 81.4061 235.786 82.0768 235.94 81.9371Z" fill="black"/>
<path opacity="0.2" d="M237.03 82.2583C236.63 81.2892 236.294 80.295 236.024 79.2821C235.937 78.1959 235.75 77.12 235.465 76.0684C235.035 77.1415 234.981 78.3281 235.311 79.4358C235.487 80.5566 236.051 81.5801 236.904 82.3282C236.904 82.3282 237.002 82.3282 237.016 82.3282C237.023 82.3183 237.028 82.3069 237.031 82.2948C237.033 82.2828 237.033 82.2703 237.03 82.2583Z" fill="black"/>
<path opacity="0.2" d="M269.299 98.8861C270.948 98.7883 272.331 99.0537 272.499 98.6765C272.667 98.2992 271.255 97.2792 269.215 97.4329C267.174 97.5866 265.861 98.6765 266.084 98.9978C266.308 99.3192 267.636 98.9559 269.299 98.8861Z" fill="black"/>
<path opacity="0.2" d="M253.409 98.5229C254.231 98.4935 255.039 98.2987 255.785 97.95C256.371 97.6426 256.609 97.2513 256.497 97.0836C256.385 96.916 256.022 96.9439 255.491 96.9579L253.339 97.0697C251.634 97.0697 250.167 97.3352 250.139 97.7543C250.111 98.1735 251.62 98.5927 253.409 98.5229Z" fill="black"/>
<path opacity="0.2" d="M258.859 115.849C258.677 115.933 259.516 117.442 261.43 118.085C261.968 118.338 262.56 118.453 263.153 118.418C263.746 118.384 264.322 118.202 264.826 117.889C263.763 117.8 262.708 117.637 261.668 117.4C260.005 116.855 259.027 115.724 258.859 115.849Z" fill="black"/>
<path opacity="0.2" d="M273.701 72.9242C271.911 71.3175 269.678 70.2895 267.293 69.9752C264.909 69.661 262.485 70.0753 260.34 71.1636C258.384 72.2116 256.707 73.8045 254.597 74.4752C252.081 75.2716 249.356 74.5869 246.715 74.3913C244.073 74.1957 240.985 74.7267 239.727 77.0182C238.861 78.4155 238.917 80.4416 237.757 81.6991C237.565 81.9151 237.344 82.1032 237.1 82.2581C237.107 82.2708 237.111 82.2853 237.111 82.3C237.111 82.3147 237.107 82.3291 237.1 82.3419C237.1 82.3419 237.1 82.3419 236.988 82.3419C235.353 83.32 233.033 83.0405 231.132 83.7392C230.05 84.1521 229.102 84.856 228.395 85.7732C227.687 86.6904 227.246 87.7853 227.121 88.9371C227.024 90.0888 227.195 91.2475 227.622 92.3217C228.049 93.3959 228.72 94.3563 229.581 95.1271C230.664 95.8941 231.609 96.839 232.376 97.9216C232.918 99.4012 232.986 101.013 232.572 102.533C233.569 102.288 234.607 102.255 235.618 102.435C235.906 102.482 236.191 102.547 236.471 102.631C236.471 102.631 236.569 104.81 236.68 107.158L236.764 107.088C240.831 106.878 239.657 96.6082 239.657 96.6082C244.856 94.5682 244.702 88.993 246.002 87.8053C247.302 86.6176 253.674 87.428 259.264 89.6777C263.61 91.5855 268.536 91.691 272.96 89.9711H273.044L273.184 89.8872L273.533 89.6637L273.841 89.496C274.974 88.655 275.862 87.5261 276.412 86.2264C277.37 83.997 277.623 81.5284 277.139 79.151C276.654 76.7736 275.455 74.601 273.701 72.9242Z" fill="black"/>
<path d="M493.391 0.391239L493.713 0.726585H162.682L163.045 0.363298C163.045 170.399 163.045 327.804 163.045 455.334L162.738 455.041L493.811 455.334L162.738 455.641H162.444V455.334C162.444 327.804 162.444 170.399 162.374 0.363298V0H162.78H493.811H494.146V0.391239C493.95 269.537 493.811 452.456 493.811 455.362" fill="#263238"/>
<path d="M45.4712 318.973L47.2741 322.815C48.0221 325.078 48.9959 327.259 50.1809 329.327C50.7441 330.379 51.4866 331.324 52.375 332.121C53.4392 333.145 54.6382 334.02 55.9387 334.72C56.195 334.825 56.4142 335.004 56.5685 335.235C56.7228 335.465 56.8052 335.736 56.8052 336.013C56.8052 336.29 56.7228 336.56 56.5685 336.791C56.4142 337.021 56.195 337.2 55.9387 337.305C54.7368 337.599 51.243 336.257 48.2663 333.113C45.2896 329.969 45.7508 336.788 45.8626 339.289C45.9744 341.79 46.0162 349.559 45.2756 350.202C44.1855 351.152 42.9697 350.202 42.8998 347.659C42.83 345.116 42.1172 337.668 40.7896 337.794C39.4619 337.92 40.3004 350.663 40.3004 350.663C40.3004 350.663 40.9153 353.346 39.392 353.556C36.597 353.905 36.7926 340.309 36.8346 339.01C36.8346 338.115 35.437 338.199 35.437 339.177C35.437 340.156 36.5271 351.851 33.746 352.256C31.6078 352.549 33.746 341.078 32.1948 338.758C30.6435 336.439 31.4401 347.645 29.3997 347.841C28.6311 347.924 28.0022 347.841 28.5053 341.385C29.0084 334.93 33.1591 316.933 33.1591 316.933L45.597 319.238" fill="#FFBE9D"/>
<path d="M95.0977 223.692C95.0977 223.692 55.9671 261.88 55.0447 266.826C54.1224 271.772 48.5042 326.588 48.5042 326.588L30.616 324.813C30.616 324.813 28.925 257.241 34.543 250.38C40.1611 243.519 62.4935 217.669 62.4935 217.669L95.0977 223.692Z" fill="#FFBE9D"/>
<path d="M36.1642 257.492C36.1642 257.492 35.9126 257.352 35.6331 256.947C35.1715 256.199 35.0087 255.305 35.177 254.443C35.3454 253.581 35.8325 252.813 36.5415 252.294C37.0625 251.898 37.6834 251.654 38.3348 251.59C38.9862 251.526 39.6426 251.644 40.2309 251.931C40.8665 252.231 41.3655 252.76 41.6285 253.412C41.8741 254.022 41.8741 254.703 41.6285 255.312C41.5139 255.564 41.3491 255.79 41.1441 255.975C40.939 256.161 40.6982 256.302 40.4363 256.391C40.1745 256.48 39.8972 256.515 39.6216 256.493C39.3459 256.471 39.0777 256.392 38.8334 256.262C38.5199 256.064 38.2812 255.767 38.1548 255.418C38.0283 255.069 38.0213 254.688 38.1347 254.334C38.3163 253.845 38.5959 253.719 38.6099 253.747C38.6238 253.775 38.4422 253.971 38.3583 254.39C38.2997 254.68 38.3344 254.98 38.4574 255.249C38.5805 255.518 38.7855 255.74 39.0431 255.885C39.2326 255.973 39.4379 256.023 39.6467 256.03C39.8556 256.038 40.0639 256.003 40.2593 255.929C40.4546 255.855 40.6332 255.742 40.7844 255.598C40.9355 255.454 41.0562 255.28 41.1394 255.089C41.3168 254.64 41.3168 254.14 41.1394 253.691C40.9318 253.179 40.5371 252.764 40.0353 252.532C39.5437 252.293 38.9964 252.193 38.4522 252.242C37.908 252.291 37.3875 252.488 36.9468 252.811C36.5585 253.059 36.2311 253.391 35.9892 253.783C35.7472 254.175 35.5968 254.617 35.5493 255.075C35.5144 255.923 35.7281 256.763 36.1642 257.492Z" fill="#EB996E"/>
<path d="M177.342 126.147C177.076 126.887 173.624 176.267 173.624 176.267L193.455 174.758L198.36 131.792L177.342 126.147Z" fill="#455A64"/>
<path d="M173.638 176.324L170.969 175.555L174.798 125.462L177.663 126.273L173.638 176.324Z" fill="#263238"/>
<path d="M188.689 139.142C189.33 139.142 189.849 138.623 189.849 137.982C189.849 137.342 189.33 136.823 188.689 136.823C188.049 136.823 187.53 137.342 187.53 137.982C187.53 138.623 188.049 139.142 188.689 139.142Z" fill="#263238"/>
<path d="M166.958 200.804L201.896 209.873L196.362 168.485L195.719 166.501L182.918 164.531L184.441 155.085C184.63 154.041 185.032 153.047 185.624 152.166C186.216 151.285 186.983 150.536 187.879 149.966C188.774 149.397 189.778 149.019 190.826 148.856C191.875 148.693 192.946 148.749 193.972 149.021L198.165 150.125C199.657 150.512 201.051 151.21 202.255 152.173C203.459 153.137 204.447 154.343 205.152 155.714C207.57 160.479 209.946 165.676 209.722 165.229L228.449 216.021C230.076 219.293 230.735 222.961 230.348 226.594C229.962 230.228 228.547 233.676 226.269 236.533C220.232 244.372 205.642 238.922 198.794 237.595L154.073 227.814L166.958 200.804Z" fill="#FFBE9D"/>
<path d="M97.2496 150.362C97.4183 150.766 97.4607 151.212 97.3712 151.64C97.2818 152.068 97.0647 152.459 96.7485 152.762C96.4323 153.064 96.0318 153.264 95.5999 153.335C95.168 153.405 94.7248 153.343 94.3288 153.157C92.8614 152.514 92.5819 150.558 92.7776 148.965C92.9732 147.372 93.4064 145.654 92.6658 144.228C91.9585 143.228 91.0783 142.362 90.0664 141.671C89.2754 140.946 88.6621 140.048 88.2744 139.047C87.8866 138.046 87.7346 136.969 87.8303 135.9C87.9504 134.835 88.3642 133.824 89.0256 132.98C89.6869 132.137 90.5698 131.493 91.5756 131.122C93.644 130.409 96.2714 130.912 97.7388 129.319C98.8149 128.146 98.7868 126.343 99.5974 124.974C100.841 122.794 103.706 122.319 106.152 122.514C108.597 122.71 111.113 123.353 113.461 122.64C115.431 122.039 116.983 120.558 118.855 119.608C120.849 118.606 123.1 118.233 125.311 118.537C127.522 118.841 129.588 119.809 131.237 121.313C132.833 122.874 133.917 124.883 134.347 127.073C134.776 129.264 134.53 131.533 133.641 133.581C133.032 135.073 131.92 136.304 130.497 137.06" fill="#263238"/>
<path d="M99.6953 192.057L122.838 190.213C122.978 187.502 122.838 177.05 122.838 177.05C122.838 177.05 132.467 175.555 132.621 165.872C132.775 156.189 131.084 134.154 131.084 134.154C125.611 131.805 119.612 130.955 113.703 131.692C107.794 132.429 102.187 134.725 97.4593 138.346L96.0618 139.449L99.6953 192.057Z" fill="#FFBE9D"/>
<path d="M128.764 150.754C128.626 150.63 128.514 150.481 128.435 150.314C128.355 150.147 128.31 149.966 128.301 149.782C128.291 149.597 128.319 149.413 128.382 149.239C128.444 149.065 128.541 148.906 128.666 148.769C128.914 148.496 129.261 148.332 129.631 148.313C130 148.295 130.362 148.424 130.636 148.672C130.774 148.795 130.886 148.944 130.965 149.111C131.045 149.278 131.09 149.459 131.099 149.643C131.108 149.828 131.081 150.012 131.018 150.186C130.955 150.36 130.859 150.52 130.734 150.656C130.485 150.929 130.138 151.093 129.769 151.112C129.4 151.13 129.038 151.001 128.764 150.754Z" fill="#263238"/>
<path d="M131.098 148.503C130.944 148.671 130.008 147.944 128.68 147.944C127.352 147.944 126.388 148.615 126.234 148.447C126.081 148.28 126.318 148.07 126.737 147.749C127.306 147.348 127.984 147.134 128.68 147.134C129.383 147.139 130.066 147.375 130.622 147.805C131.028 148.168 131.168 148.503 131.098 148.503Z" fill="#263238"/>
<path d="M115.823 149.705C115.987 149.797 116.132 149.922 116.247 150.071C116.362 150.22 116.446 150.391 116.493 150.574C116.541 150.756 116.551 150.947 116.522 151.133C116.494 151.32 116.429 151.498 116.33 151.659C116.23 151.819 116.1 151.958 115.946 152.067C115.792 152.175 115.617 152.252 115.432 152.291C115.248 152.33 115.058 152.332 114.872 152.296C114.687 152.26 114.511 152.186 114.355 152.08C114.041 151.887 113.817 151.577 113.73 151.218C113.644 150.86 113.703 150.482 113.894 150.166C113.99 150.009 114.116 149.872 114.265 149.764C114.414 149.655 114.583 149.577 114.763 149.534C114.942 149.492 115.128 149.485 115.31 149.514C115.492 149.543 115.666 149.608 115.823 149.705Z" fill="#263238"/>
<path d="M116.703 149.719C116.549 149.887 115.599 149.16 114.271 149.146C112.944 149.132 111.993 149.831 111.84 149.663C111.686 149.496 111.924 149.286 112.343 148.965C112.904 148.55 113.588 148.334 114.285 148.35C114.982 148.359 115.657 148.589 116.214 149.007C116.633 149.342 116.773 149.649 116.703 149.719Z" fill="#263238"/>
<path d="M122.014 160.66C122.692 160.376 123.417 160.219 124.152 160.199C124.501 160.199 124.781 160.087 124.795 159.892C124.809 159.545 124.727 159.202 124.557 158.9C124.208 158.033 123.872 157.139 123.509 156.217C122.514 153.938 121.75 151.564 121.231 149.133C122.457 151.291 123.454 153.572 124.208 155.937L125.2 158.662C125.417 159.094 125.486 159.585 125.396 160.059C125.342 160.19 125.26 160.308 125.157 160.405C125.053 160.501 124.929 160.574 124.795 160.618C124.601 160.659 124.405 160.682 124.208 160.688C123.48 160.803 122.738 160.793 122.014 160.66Z" fill="#263238"/>
<path d="M117.709 162.113C119.778 163.043 121.965 163.683 124.208 164.014C123.75 164.698 123.075 165.208 122.291 165.462C121.508 165.715 120.662 165.697 119.89 165.411C116.997 164.405 117.709 162.113 117.709 162.113Z" fill="white"/>
<path d="M122.796 176.911C118.342 177.002 113.963 175.761 110.219 173.347C110.219 173.347 113.181 180.334 122.796 179.412V176.911Z" fill="#EB996E"/>
<path d="M131.181 136.627C131.181 136.627 125.591 139.883 117.667 136.627C112.483 134.503 106.585 133.721 105.383 134.824C104.181 135.928 104.279 141.07 99.4436 142.943C99.4436 142.943 100.52 152.724 96.5787 152.724C92.6377 152.724 93.9654 137.354 93.9654 137.354L103.175 131.974L113.475 129.179L123.411 129.836L131.181 131.359V136.627Z" fill="#263238"/>
<path d="M97.1239 149.496C96.9562 149.426 90.4996 147.54 90.7232 154.121C90.9468 160.702 97.4872 159.137 97.5011 158.941C97.5151 158.746 97.1239 149.496 97.1239 149.496Z" fill="#FFBE9D"/>
<path d="M95.4046 156.51C95.4046 156.51 95.2929 156.594 95.0972 156.692C94.9626 156.75 94.8176 156.78 94.671 156.78C94.5244 156.78 94.3794 156.75 94.2448 156.692C93.8077 156.44 93.4471 156.074 93.201 155.634C92.955 155.194 92.8327 154.695 92.8472 154.191C92.8144 153.627 92.91 153.063 93.1268 152.542C93.1788 152.334 93.2812 152.143 93.425 151.984C93.5689 151.826 93.7496 151.705 93.9512 151.634C94.0817 151.596 94.2213 151.604 94.3462 151.658C94.471 151.711 94.5735 151.806 94.636 151.927C94.7338 152.109 94.636 152.248 94.7338 152.248C94.8317 152.248 94.8736 152.137 94.7338 151.871C94.6923 151.711 94.599 151.568 94.4683 151.466C94.2815 151.334 94.0516 151.279 93.8255 151.312C93.5574 151.375 93.3098 151.506 93.1067 151.692C92.9036 151.878 92.7517 152.113 92.6655 152.374C92.4009 152.951 92.2856 153.585 92.3302 154.219C92.3148 154.806 92.4739 155.385 92.7873 155.882C93.1006 156.38 93.5543 156.773 94.091 157.013C94.2681 157.058 94.453 157.063 94.632 157.026C94.811 156.99 94.9796 156.914 95.1252 156.804C95.4047 156.678 95.4326 156.524 95.4046 156.51Z" fill="#EB996E"/>
<path d="M92.6521 129.109C92.6521 128.928 93.6723 128.453 94.9999 128.872C96.3276 129.291 96.9565 130.269 96.7888 130.395C96.6211 130.521 95.8944 129.906 94.7764 129.571C93.6583 129.235 92.708 129.305 92.6521 129.109Z" fill="#263238"/>
<path d="M96.3973 124.96C96.6209 124.96 96.607 126.357 96.9144 127.936C97.2219 129.515 97.9626 130.731 97.7949 130.731C97.6272 130.731 96.551 129.808 96.2017 128.02C95.9016 127.009 95.971 125.924 96.3973 124.96Z" fill="#263238"/>
<path d="M124.655 146.394C124.432 146.058 125.661 144.996 127.562 144.912C129.463 144.829 130.79 145.779 130.609 146.128C130.427 146.477 129.211 146.282 127.632 146.366C126.053 146.449 124.851 146.743 124.655 146.394Z" fill="#263238"/>
<path d="M109.883 145.15C109.674 144.829 110.889 143.753 112.804 143.669C114.719 143.585 116.018 144.549 115.837 144.885C115.655 145.22 114.439 145.039 112.86 145.122C111.281 145.206 110.079 145.514 109.883 145.15Z" fill="#263238"/>
<path d="M55.4077 551.873L53.1717 561.5C53.1717 561.5 37.4216 581.97 32.5582 580.964C29.3719 580.307 33.2849 574.97 39.2803 559.432L40.5381 553.004L55.4077 551.873Z" fill="#455A64"/>
<path d="M31.8457 577.946C32.0444 578.285 32.3352 578.561 32.6843 578.742C33.1769 578.959 33.7199 579.034 34.2529 578.96C34.7859 578.886 35.2878 578.666 35.7029 578.323C38.4684 576.011 41.0868 573.528 43.543 570.89C46.4638 567.83 48.9095 564.895 50.6424 562.716L52.6548 560.131L53.1999 559.418C53.2611 559.332 53.3314 559.252 53.4095 559.18L53.2418 559.46L52.7387 560.2C52.3054 560.829 51.6346 561.737 50.7961 562.841C48.6199 565.72 46.2872 568.477 43.8085 571.099C41.3433 573.75 38.6905 576.221 35.8706 578.491C35.348 578.864 34.7352 579.091 34.0957 579.148C33.6101 579.18 33.1253 579.074 32.6982 578.84C32.4204 578.704 32.1877 578.49 32.0274 578.225C31.946 578.148 31.8838 578.052 31.8457 577.946Z" fill="#263238"/>
<path d="M34.0818 571.365C34.4937 571.199 34.9423 571.146 35.3815 571.211C36.4367 571.318 37.4518 571.672 38.3442 572.245C39.2763 572.779 40.0299 573.576 40.5104 574.537C40.7196 574.924 40.8345 575.354 40.8457 575.794C40.8457 575.794 40.692 575.319 40.3287 574.62C39.8145 573.737 39.0772 573.005 38.1905 572.497C37.3402 571.954 36.3898 571.589 35.3955 571.421C34.9589 571.378 34.5204 571.359 34.0818 571.365Z" fill="#263238"/>
<path d="M48.9791 566.558C48.8942 566.415 48.8328 566.259 48.7974 566.097C48.6608 565.667 48.5534 565.228 48.476 564.784C48.2521 563.28 48.5114 561.743 49.2166 560.396C49.9013 559.034 51.0234 557.942 52.403 557.294C52.8178 557.109 53.2545 556.977 53.7027 556.903C54.0241 556.903 54.2058 556.903 54.2058 556.903C53.6172 557.061 53.0424 557.267 52.4868 557.518C51.1883 558.188 50.1325 559.248 49.4682 560.55C48.8081 561.842 48.5363 563.298 48.6855 564.742C48.8253 565.873 49.0489 566.544 48.9791 566.558Z" fill="#263238"/>
<path d="M54.4017 553.507C54.4017 553.507 54.1083 554.905 53.8148 556.567C53.7092 557.617 53.4305 558.641 52.9902 559.599C52.9902 559.599 53.2418 558.202 53.5353 556.525C53.6567 555.479 53.9494 554.459 54.4017 553.507Z" fill="#263238"/>
<path d="M38.9312 560.787C39.5933 560.597 40.2955 560.597 40.9576 560.787C41.6331 560.898 42.2633 561.198 42.7743 561.653C42.7743 561.737 41.9498 561.318 40.8877 561.081C39.8256 560.843 38.9312 560.871 38.9312 560.787Z" fill="#263238"/>
<path d="M38.6096 562.436C39.1517 562.211 39.7559 562.186 40.3146 562.366C40.8943 562.457 41.4236 562.749 41.8099 563.191C41.8099 563.26 41.1251 562.855 40.2447 562.646C39.3643 562.436 38.6236 562.52 38.6096 562.436Z" fill="#263238"/>
<path d="M37.3518 564.504C37.6125 564.344 37.9045 564.241 38.2081 564.202C38.5118 564.164 38.8202 564.19 39.1127 564.28C39.4177 564.321 39.71 564.428 39.9686 564.595C40.2271 564.761 40.4455 564.983 40.6081 565.245C40.1166 564.962 39.5967 564.733 39.0568 564.56C38.4925 564.476 37.9204 564.457 37.3518 564.504Z" fill="#263238"/>
<path d="M40.0212 560.089C40.0212 560.089 40.7479 559.893 41.8659 559.46C42.5223 559.202 43.1578 558.894 43.7666 558.538C44.116 558.342 44.4654 558.119 44.8147 557.881C45.1641 557.644 45.4855 557.294 45.4715 556.917C45.4576 556.54 44.9964 556.344 44.633 556.442C44.2604 556.567 43.9277 556.789 43.6688 557.085C43.1495 557.567 42.6551 558.075 42.1874 558.608C41.3768 559.502 40.9296 560.103 40.9016 560.075C40.9656 559.908 41.0552 559.753 41.1671 559.614C41.4357 559.217 41.725 558.834 42.0337 558.468C42.4668 557.914 42.9335 557.386 43.4312 556.889C43.7313 556.557 44.1113 556.307 44.5352 556.162C44.6621 556.123 44.796 556.111 44.9279 556.128C45.0598 556.144 45.1865 556.189 45.2993 556.26C45.4121 556.33 45.5084 556.424 45.5816 556.535C45.6547 556.646 45.703 556.772 45.7231 556.903C45.6936 557.15 45.6077 557.387 45.472 557.595C45.3362 557.803 45.1544 557.978 44.9405 558.105C44.5899 558.348 44.226 558.572 43.8504 558.775C43.2228 559.121 42.5685 559.415 41.8939 559.656C41.4364 559.811 40.9696 559.937 40.4964 560.033C40.2029 560.103 40.0212 560.117 40.0212 560.089Z" fill="#263238"/>
<path d="M40.8455 559.893C40.7149 559.312 40.6169 558.724 40.552 558.133C40.4511 557.507 40.2728 556.897 40.021 556.316C39.8657 555.98 39.6685 555.666 39.434 555.38C39.1825 555.114 38.8192 554.877 38.5257 555.059C38.2322 555.24 38.2042 555.659 38.2462 556.009C38.3013 556.375 38.4046 556.732 38.5536 557.071C38.8091 557.647 39.1534 558.18 39.5738 558.65C40.3005 559.46 40.8735 559.851 40.8455 559.893C40.6938 559.837 40.5523 559.757 40.4263 559.656C40.0655 559.398 39.7287 559.108 39.42 558.789C38.9572 558.317 38.5791 557.769 38.302 557.168C38.1379 556.812 38.0205 556.437 37.9526 556.051C37.9017 555.821 37.9152 555.583 37.9917 555.361C38.0682 555.139 38.2046 554.942 38.3859 554.793C38.6105 554.709 38.8571 554.703 39.0855 554.776C39.3139 554.85 39.5106 554.999 39.6437 555.198C39.8994 555.5 40.1068 555.839 40.2586 556.204C40.5131 556.812 40.6824 557.451 40.7617 558.105C40.7617 558.65 40.8455 559.097 40.8595 559.418C40.8791 559.576 40.8743 559.736 40.8455 559.893Z" fill="#263238"/>
<path d="M133.739 556.735L133.809 543.88L109.743 543.601L109.436 562.394L110.931 562.506C117.57 562.953 144.709 564.323 149.168 563.023C154.129 561.584 133.739 556.735 133.739 556.735Z" fill="#455A64"/>
<path d="M109.073 561.835H109.492L110.68 561.933L115.054 562.171C118.744 562.352 123.845 562.534 129.491 562.604C135.137 562.674 140.238 562.604 143.941 562.604L148.315 562.478H149.503C149.642 562.496 149.783 562.496 149.922 562.478H148.343H143.969C140.265 562.478 135.165 562.478 129.519 562.478C123.873 562.478 118.786 562.254 115.082 562.115L110.708 561.975H109.52L109.073 561.835Z" fill="#263238"/>
<path d="M141.523 562.911C141.72 562.187 142.002 561.488 142.362 560.829C142.797 560.217 143.309 559.663 143.885 559.18C143.127 559.434 142.497 559.969 142.124 560.676C141.653 561.32 141.439 562.117 141.523 562.911Z" fill="#263238"/>
<path d="M134.466 559.209C134.535 559.209 134.885 558.845 135.234 558.3C135.584 557.755 135.835 557.266 135.765 557.224C135.695 557.182 135.346 557.588 134.997 558.147C134.647 558.706 134.396 559.167 134.466 559.209Z" fill="#263238"/>
<path d="M132.537 558.16C132.537 558.16 132.97 557.979 133.39 557.601C133.809 557.224 134.102 556.889 134.046 556.833C133.991 556.777 133.613 557.014 133.194 557.392C132.775 557.769 132.481 558.104 132.537 558.16Z" fill="#263238"/>
<path d="M131.321 555.869C131.72 556.028 132.151 556.09 132.579 556.05C133.002 556.1 133.43 556.062 133.837 555.939C133.442 555.781 133.016 555.718 132.593 555.757C132.166 555.709 131.734 555.747 131.321 555.869Z" fill="#263238"/>
<path d="M130.93 554.262C131.339 554.548 131.828 554.699 132.327 554.695C132.801 554.779 133.289 554.715 133.725 554.513C133.263 554.434 132.796 554.396 132.327 554.401C131.866 554.317 131.399 554.27 130.93 554.262Z" fill="#263238"/>
<path d="M135.304 557.126C135.818 557.211 136.342 557.211 136.855 557.126C137.414 557.058 137.966 556.941 138.505 556.777C138.836 556.692 139.155 556.565 139.455 556.4C139.64 556.296 139.779 556.126 139.846 555.925C139.872 555.812 139.865 555.693 139.825 555.584C139.786 555.475 139.715 555.38 139.623 555.31C139.038 555.003 138.363 554.914 137.718 555.057C137.074 555.2 136.501 555.567 136.101 556.092C135.862 556.395 135.686 556.741 135.584 557.112C135.514 557.378 135.514 557.532 135.584 557.532C135.743 557.056 135.984 556.611 136.296 556.218C136.673 555.812 137.158 555.521 137.694 555.38C137.994 555.283 138.31 555.247 138.625 555.274C138.939 555.3 139.245 555.388 139.525 555.534C139.776 555.715 139.678 556.009 139.399 556.162C139.119 556.314 138.824 556.436 138.518 556.526C137.999 556.7 137.466 556.831 136.925 556.917C135.905 557.085 135.304 557.085 135.304 557.126Z" fill="#263238"/>
<path d="M135.709 557.211C135.904 556.888 135.974 556.505 135.905 556.135C135.856 555.732 135.718 555.345 135.5 555.003C135.371 554.771 135.186 554.574 134.961 554.433C134.736 554.291 134.479 554.208 134.214 554.192C134.057 554.226 133.919 554.319 133.828 554.451C133.737 554.584 133.7 554.746 133.725 554.905C133.764 555.154 133.854 555.392 133.99 555.604C134.185 555.946 134.425 556.261 134.703 556.54C134.934 556.828 135.238 557.05 135.584 557.183C135.584 557.183 135.276 556.903 134.857 556.4C134.61 556.111 134.395 555.798 134.214 555.464C134.004 555.143 133.879 554.556 134.214 554.486C134.549 554.416 134.997 554.849 135.234 555.157C135.445 555.458 135.588 555.801 135.654 556.163C135.702 556.51 135.72 556.86 135.709 557.211Z" fill="#263238"/>
<path d="M109.674 555.254C109.674 555.254 110.372 555.254 111.462 555.338C112.88 555.511 114.219 556.083 115.323 556.989C116.426 557.895 117.249 559.096 117.695 560.452C118.045 561.486 118.073 562.171 118.129 562.171C118.152 562.008 118.152 561.844 118.129 561.682C117.958 559.984 117.197 558.4 115.979 557.206C114.761 556.011 113.163 555.281 111.462 555.142C110.998 555.086 110.529 555.086 110.065 555.142C109.931 555.164 109.799 555.202 109.674 555.254Z" fill="#263238"/>
<path d="M112.301 545.333C112.031 548.619 111.947 551.917 112.049 555.212C112.243 553.575 112.331 551.928 112.315 550.28C112.407 548.632 112.403 546.981 112.301 545.333Z" fill="#263238"/>
<path d="M121.231 560.005C122.379 560.283 123.558 560.414 124.739 560.396C125.918 560.463 127.101 560.383 128.26 560.158C128.26 560.075 126.681 560.158 124.739 560.158C122.796 560.158 121.231 559.921 121.231 560.005Z" fill="#263238"/>
<path d="M116.508 559.935C116.508 559.935 116.633 560.27 116.787 560.634C116.941 560.997 117.025 561.318 117.108 561.304C117.192 561.29 117.234 560.927 117.108 560.508C116.983 560.089 116.563 559.879 116.508 559.935Z" fill="#263238"/>
<path d="M114.761 557.699C114.761 557.699 114.859 558.007 115.096 558.258C115.334 558.51 115.585 558.677 115.655 558.621C115.725 558.566 115.557 558.314 115.306 558.063C115.054 557.811 114.817 557.643 114.761 557.699Z" fill="#263238"/>
<path d="M112.231 556.651C112.231 556.735 112.567 556.735 112.916 556.861C113.265 556.987 113.517 557.182 113.587 557.14C113.657 557.099 113.447 556.749 113.014 556.595C112.581 556.442 112.203 556.582 112.231 556.651Z" fill="#263238"/>
<path d="M110.47 556.148C110.47 556.232 110.568 556.358 110.764 556.442C110.959 556.526 111.155 556.526 111.183 556.442C111.211 556.358 111.071 556.246 110.875 556.162C110.68 556.079 110.47 556.079 110.47 556.148Z" fill="#263238"/>
<path d="M150.118 301.562L138.882 551.188L101.4 551.984L107.633 342.992L65.4701 553.577H29.8333L77.4329 301.562" fill="#263238"/>
<path d="M38.8051 549.972C39.0008 549.972 39.0846 550.489 38.9868 551.062C38.889 551.635 38.6514 552.068 38.4558 552.04C38.2601 552.012 38.1763 551.509 38.2742 550.936C38.372 550.364 38.6095 549.93 38.8051 549.972Z" fill="#455A64"/>
<path d="M40.175 541.798C40.3707 541.798 40.3846 542.776 40.175 543.908C39.9654 545.04 39.6719 545.92 39.4762 545.878C39.2806 545.836 39.2666 544.914 39.4762 543.782C39.6859 542.65 39.9794 541.77 40.175 541.798Z" fill="#455A64"/>
<path d="M41.5446 533.624C41.7403 533.624 41.7543 534.602 41.5446 535.734C41.335 536.866 41.0415 537.746 40.8459 537.718C40.6502 537.69 40.6362 536.74 40.8459 535.608C41.0555 534.477 41.349 533.596 41.5446 533.624Z" fill="#455A64"/>
<path d="M42.928 525.45C43.1237 525.45 43.1237 526.428 42.928 527.56C42.7324 528.692 42.4249 529.572 42.2153 529.544C42.0056 529.516 42.0196 528.566 42.2153 527.434C42.4109 526.302 42.7184 525.422 42.928 525.45Z" fill="#455A64"/>
<path d="M44.2976 517.276C44.4932 517.276 44.5072 518.254 44.2976 519.386C44.0879 520.517 43.7945 521.398 43.5988 521.37C43.4031 521.342 43.3892 520.392 43.5988 519.26C43.8084 518.128 44.1019 517.248 44.2976 517.276Z" fill="#455A64"/>
<path d="M45.6812 509.102C45.8768 509.102 45.8768 510.08 45.6812 511.212C45.4855 512.343 45.1781 513.224 44.9684 513.182C44.7588 513.14 44.7728 512.218 44.9684 511.086C45.1641 509.954 45.4855 509.074 45.6812 509.102Z" fill="#455A64"/>
<path d="M47.0647 500.927C47.2604 500.927 47.2604 501.906 47.0647 503.037C46.8691 504.169 46.5616 505.049 46.352 505.007C46.1423 504.966 46.1563 504.043 46.352 502.912C46.5476 501.78 46.8691 500.899 47.0647 500.927Z" fill="#455A64"/>
<path d="M48.4483 492.753C48.6439 492.753 48.6579 493.731 48.4483 494.863C48.2386 495.995 47.9451 496.875 47.7355 496.847C47.5259 496.819 47.5399 495.869 47.7355 494.738C47.9312 493.606 48.2526 492.725 48.4483 492.753Z" fill="#455A64"/>
<path d="M49.8457 484.579C50.0414 484.579 50.0414 485.557 49.8457 486.689C49.6501 487.821 49.3286 488.701 49.133 488.659C48.9373 488.617 48.9234 487.695 49.133 486.563C49.3426 485.432 49.6501 484.551 49.8457 484.579Z" fill="#455A64"/>
<path d="M51.2432 476.405C51.4388 476.405 51.4388 477.383 51.2432 478.515C51.0475 479.647 50.7261 480.527 50.5304 480.499C50.3348 480.471 50.3208 479.521 50.5304 478.389C50.7401 477.258 51.0475 476.377 51.2432 476.405Z" fill="#455A64"/>
<path d="M52.6407 468.231C52.8504 468.231 52.8504 469.209 52.6407 470.341C52.4311 471.473 52.1236 472.353 51.928 472.325C51.7323 472.297 51.7323 471.347 51.928 470.215C52.1236 469.083 52.4451 468.203 52.6407 468.231Z" fill="#455A64"/>
<path d="M54.0523 460.099C54.2619 460.099 54.2619 461.077 54.0523 462.195C53.8426 463.313 53.5352 464.221 53.3395 464.179C53.1439 464.137 53.1299 463.201 53.3395 462.069C53.5492 460.937 53.8566 460.099 54.0523 460.099Z" fill="#455A64"/>
<path d="M55.4779 451.897C55.6736 451.897 55.6736 452.875 55.4779 454.007C55.2822 455.139 54.9608 456.019 54.7651 455.977C54.5695 455.935 54.5695 455.013 54.7651 453.881C54.9608 452.749 55.2822 451.869 55.4779 451.897Z" fill="#455A64"/>
<path d="M56.9032 443.736C57.0988 443.736 57.0988 444.714 56.9032 445.832C56.7075 446.95 56.3861 447.844 56.1904 447.816C55.9948 447.788 55.9948 446.838 56.1904 445.706C56.3861 444.575 56.7075 443.694 56.9032 443.736Z" fill="#455A64"/>
<path d="M58.3427 435.562C58.5384 435.562 58.5384 436.541 58.3427 437.672C58.1471 438.804 57.8116 439.684 57.616 439.642C57.4203 439.601 57.4203 438.678 57.616 437.547C57.8116 436.415 58.1471 435.534 58.3427 435.562Z" fill="#455A64"/>
<path d="M59.7821 427.402C59.9777 427.402 59.9777 428.38 59.7821 429.512C59.5864 430.644 59.2511 431.524 59.0554 431.482C58.8598 431.44 58.8598 430.504 59.0554 429.372C59.2511 428.24 59.5864 427.36 59.7821 427.402Z" fill="#455A64"/>
<path d="M61.2355 419.242C61.4312 419.242 61.4312 420.22 61.2355 421.338C61.0399 422.456 60.7045 423.35 60.5088 423.322C60.3131 423.294 60.3131 422.344 60.5088 421.212C60.7045 420.081 61.0399 419.2 61.2355 419.242Z" fill="#455A64"/>
<path d="M62.703 411.082C62.8986 411.082 62.8986 412.06 62.703 413.178C62.5073 414.296 62.1859 415.19 61.9902 415.162C61.7946 415.134 61.7946 414.184 61.9902 413.052C62.1859 411.92 62.5073 411.04 62.703 411.082Z" fill="#455A64"/>
<path d="M64.184 402.922C64.3797 402.922 64.3797 403.9 64.184 405.032C63.9884 406.164 63.6529 407.03 63.4573 407.002C63.2616 406.974 63.2616 406.024 63.4573 404.892C63.6529 403.76 63.9884 402.88 64.184 402.922Z" fill="#455A64"/>
<path d="M65.6657 394.762C65.8753 394.762 65.8614 395.74 65.6657 396.872C65.4701 398.003 65.1346 398.884 64.939 398.842C64.7433 398.8 64.7433 397.864 64.939 396.746C65.1346 395.628 65.4701 394.734 65.6657 394.762Z" fill="#455A64"/>
<path d="M67.147 386.616C67.3426 386.616 67.3287 387.594 67.147 388.712C66.9653 389.829 66.6019 390.724 66.4063 390.696C66.2106 390.668 66.2106 389.704 66.4063 388.586C66.6019 387.468 66.9793 386.574 67.147 386.616Z" fill="#455A64"/>
<path d="M68.6842 378.455C68.8938 378.455 68.8798 379.434 68.6842 380.565C68.4885 381.697 68.1392 382.577 67.9435 382.536C67.7479 382.494 67.7619 381.557 67.9435 380.426C68.1252 379.294 68.5444 378.428 68.6842 378.455Z" fill="#455A64"/>
<path d="M70.2216 370.309C70.4173 370.309 70.4033 371.287 70.2216 372.419C70.04 373.551 69.6766 374.417 69.4809 374.389C69.2853 374.361 69.2992 373.411 69.4809 372.279C69.6626 371.148 70.026 370.281 70.2216 370.309Z" fill="#455A64"/>
<path d="M71.7729 362.163C71.9685 362.163 71.9546 363.141 71.7729 364.273C71.5912 365.404 71.2139 366.271 71.0183 366.243C70.8226 366.215 70.8366 365.265 71.0183 364.133C71.1999 363.001 71.5772 362.135 71.7729 362.163Z" fill="#455A64"/>
<path d="M73.3382 354.031C73.5339 354.031 73.5199 355.009 73.3382 356.127C73.1565 357.245 72.7373 358.097 72.5556 358.097C72.3739 358.097 72.36 357.119 72.5556 355.987C72.7513 354.855 73.1286 353.989 73.3382 354.031Z" fill="#455A64"/>
<path d="M74.9172 345.885C75.1128 345.885 75.0989 346.863 74.9172 347.995C74.7355 349.126 74.3582 349.993 74.1625 349.951C73.9669 349.909 73.9809 348.973 74.1625 347.855C74.3442 346.737 74.7215 345.843 74.9172 345.885Z" fill="#455A64"/>
<path d="M76.5105 337.752C76.7062 337.752 76.6922 338.731 76.5105 339.862C76.3288 340.994 75.9515 341.86 75.7558 341.819C75.5602 341.777 75.5741 340.84 75.7558 339.709C75.9375 338.577 76.3149 337.711 76.5105 337.752Z" fill="#455A64"/>
<path d="M78.1314 329.62C78.327 329.62 78.313 330.598 78.1314 331.73C77.9497 332.862 77.5584 333.728 77.3627 333.686C77.1671 333.644 77.1811 332.708 77.3627 331.576C77.5444 330.445 77.9357 329.578 78.1314 329.62Z" fill="#455A64"/>
<path d="M79.7248 321.488C79.9204 321.488 79.9064 322.48 79.7248 323.598C79.5431 324.716 79.1658 325.596 78.9561 325.554C78.7465 325.512 78.7884 324.576 78.9561 323.458C79.1238 322.34 79.571 321.46 79.7248 321.488Z" fill="#455A64"/>
<path d="M81.4297 313.384C81.6253 313.384 81.5974 314.362 81.4297 315.479C81.262 316.597 80.8567 317.492 80.6611 317.45C80.4654 317.408 80.4794 316.458 80.6611 315.34C80.8428 314.222 81.234 313.384 81.4297 313.384Z" fill="#455A64"/>
<path d="M82.7015 307.249C82.8971 307.249 82.967 307.78 82.8412 308.339C82.7154 308.898 82.4779 309.331 82.2682 309.303C82.0586 309.275 82.0166 308.758 82.1284 308.2C82.2402 307.641 82.5198 307.207 82.7015 307.249Z" fill="#455A64"/>
<path d="M107.857 549.944C108.067 549.944 108.206 550.433 108.178 551.006C108.15 551.579 107.955 552.04 107.759 552.04C107.564 552.04 107.41 551.551 107.452 550.964C107.494 550.378 107.675 549.93 107.857 549.944Z" fill="#455A64"/>
<path d="M108.206 541.631C108.402 541.631 108.542 542.567 108.486 543.726C108.43 544.886 108.248 545.794 108.053 545.78C107.857 545.767 107.717 544.844 107.759 543.698C107.801 542.553 108.011 541.617 108.206 541.631Z" fill="#455A64"/>
<path d="M108.458 533.303C108.667 533.303 108.807 534.253 108.765 535.399C108.723 536.544 108.542 537.481 108.346 537.467C108.15 537.453 108.011 536.53 108.038 535.385C108.066 534.239 108.262 533.303 108.458 533.303Z" fill="#455A64"/>
<path d="M108.681 524.989C108.877 524.989 109.017 525.925 108.989 527.085C108.961 528.244 108.779 529.153 108.57 529.153C108.36 529.153 108.234 528.203 108.262 527.057C108.29 525.911 108.472 524.989 108.681 524.989Z" fill="#455A64"/>
<path d="M108.877 516.661C109.073 516.661 109.212 517.611 109.184 518.757C109.156 519.903 108.975 520.839 108.779 520.825C108.583 520.811 108.43 519.889 108.458 518.743C108.486 517.597 108.667 516.661 108.877 516.661Z" fill="#455A64"/>
<path d="M109.073 508.347C109.282 508.347 109.408 509.283 109.38 510.429C109.352 511.575 109.17 512.511 108.961 512.497C108.751 512.483 108.625 511.561 108.653 510.415C108.681 509.269 108.891 508.333 109.073 508.347Z" fill="#455A64"/>
<path d="M109.366 500.019C109.562 500.019 109.702 500.955 109.66 502.115C109.618 503.275 109.422 504.183 109.212 504.183C109.003 504.183 108.891 503.233 108.933 502.087C108.975 500.941 109.171 500.005 109.366 500.019Z" fill="#455A64"/>
<path d="M109.716 491.705C109.911 491.705 110.037 492.642 109.995 493.787C109.953 494.933 109.744 495.869 109.534 495.855C109.324 495.841 109.213 494.905 109.268 493.759C109.324 492.614 109.52 491.692 109.716 491.705Z" fill="#455A64"/>
<path d="M110.037 483.378C110.247 483.378 110.373 484.328 110.331 485.474C110.289 486.619 110.079 487.556 109.883 487.542C109.688 487.528 109.548 486.591 109.59 485.446C109.632 484.3 109.842 483.378 110.037 483.378Z" fill="#455A64"/>
<path d="M110.33 475.064C110.526 475.064 110.666 476.014 110.624 477.16C110.582 478.305 110.386 479.228 110.191 479.228C109.995 479.228 109.855 478.277 109.897 477.132C109.939 475.986 110.135 475.064 110.33 475.064Z" fill="#455A64"/>
<path d="M110.582 466.736C110.792 466.736 110.917 467.686 110.889 468.832C110.862 469.978 110.666 470.9 110.456 470.9C110.247 470.9 110.121 469.95 110.163 468.804C110.205 467.658 110.386 466.736 110.582 466.736Z" fill="#455A64"/>
<path d="M110.805 458.422C111.001 458.422 111.141 459.358 111.113 460.504C111.085 461.65 110.903 462.586 110.694 462.572C110.484 462.558 110.358 461.636 110.386 460.49C110.414 459.344 110.596 458.408 110.805 458.422Z" fill="#455A64"/>
<path d="M110.987 450.094C111.183 450.094 111.323 451.031 111.309 452.19C111.295 453.35 111.099 454.258 110.89 454.258C110.68 454.258 110.554 453.322 110.568 452.162C110.582 451.003 110.778 450.094 110.987 450.094Z" fill="#455A64"/>
<path d="M111.127 441.78C111.323 441.78 111.477 442.717 111.449 443.862C111.421 445.008 111.253 445.944 111.057 445.93C110.862 445.916 110.708 444.994 110.722 443.848C110.736 442.703 110.918 441.766 111.127 441.78Z" fill="#455A64"/>
<path d="M111.225 433.452C111.42 433.452 111.574 434.389 111.56 435.534C111.546 436.68 111.379 437.616 111.183 437.616C110.987 437.616 110.82 436.68 110.834 435.534C110.848 434.389 111.015 433.452 111.225 433.452Z" fill="#455A64"/>
<path d="M111.281 425.167C111.477 425.167 111.644 426.103 111.63 427.248C111.616 428.394 111.463 429.33 111.253 429.33C111.043 429.33 110.904 428.394 110.904 427.248C110.904 426.103 111.085 425.167 111.281 425.167Z" fill="#455A64"/>
<path d="M111.295 416.783C111.504 416.783 111.658 417.705 111.658 418.865C111.658 420.025 111.49 420.933 111.295 420.933C111.099 420.933 110.931 420.011 110.931 418.865C110.931 417.719 111.099 416.783 111.295 416.783Z" fill="#455A64"/>
<path d="M111.281 408.483C111.476 408.483 111.644 409.419 111.644 410.565C111.644 411.711 111.49 412.647 111.295 412.647C111.099 412.647 110.931 411.711 110.917 410.565C110.903 409.419 111.071 408.483 111.281 408.483Z" fill="#455A64"/>
<path d="M111.211 400.155C111.406 400.155 111.588 401.091 111.588 402.237C111.588 403.383 111.448 404.319 111.253 404.319C111.057 404.319 110.875 403.397 110.861 402.237C110.847 401.077 111.015 400.155 111.211 400.155Z" fill="#455A64"/>
<path d="M111.099 391.841C111.309 391.841 111.477 392.764 111.49 393.909C111.504 395.055 111.365 395.991 111.155 396.005C110.945 396.019 110.778 395.069 110.764 393.923C110.75 392.777 110.904 391.841 111.099 391.841Z" fill="#455A64"/>
<path d="M110.959 383.513C111.155 383.513 111.337 384.449 111.351 385.595C111.365 386.741 111.239 387.677 111.029 387.677C110.82 387.677 110.652 386.755 110.624 385.609C110.596 384.463 110.75 383.527 110.959 383.513Z" fill="#455A64"/>
<path d="M110.763 375.186C110.973 375.186 111.155 376.108 111.183 377.268C111.211 378.428 111.071 379.35 110.861 379.35C110.652 379.35 110.484 378.428 110.456 377.282C110.428 376.136 110.568 375.2 110.763 375.186Z" fill="#455A64"/>
<path d="M110.47 366.872C110.68 366.872 110.876 367.78 110.917 368.926C110.959 370.072 110.834 371.022 110.638 371.022C110.442 371.022 110.233 370.114 110.191 368.968C110.149 367.822 110.275 366.872 110.47 366.872Z" fill="#455A64"/>
<path d="M109.995 358.558C110.191 358.558 110.414 359.452 110.484 360.612C110.554 361.772 110.484 362.694 110.261 362.708C110.037 362.722 109.841 361.8 109.757 360.654C109.674 359.508 109.785 358.572 109.995 358.558Z" fill="#455A64"/>
<path d="M109.227 350.258C109.422 350.258 109.688 351.152 109.8 352.298C109.911 353.444 109.8 354.38 109.646 354.408C109.492 354.436 109.185 353.513 109.073 352.368C108.961 351.222 109.073 350.286 109.227 350.258Z" fill="#455A64"/>
<path d="M108.416 344.124C108.625 344.124 108.849 344.529 108.933 345.102C109.017 345.675 108.933 346.164 108.723 346.192C108.514 346.22 108.29 345.773 108.206 345.2C108.122 344.627 108.22 344.124 108.416 344.124Z" fill="#455A64"/>
<path d="M113.866 304.735C113.935 305.249 113.935 305.771 113.866 306.286C113.866 307.278 113.796 308.703 113.713 310.477C113.559 314.013 113.307 318.861 112.972 324.283C112.79 326.965 112.622 329.536 112.469 331.884C112.457 333.989 112.151 336.082 111.56 338.102C111.313 338.788 110.928 339.417 110.428 339.948C109.928 340.479 109.324 340.902 108.654 341.19C108.288 341.33 107.899 341.401 107.508 341.399C107.374 341.431 107.235 341.431 107.102 341.399C107.579 341.298 108.046 341.158 108.5 340.98C109.707 340.353 110.617 339.273 111.029 337.976C111.536 335.99 111.78 333.947 111.756 331.898C111.896 329.55 112.049 326.979 112.203 324.297C112.539 318.903 112.874 314.027 113.154 310.491C113.307 308.731 113.433 307.306 113.531 306.3C113.587 305.767 113.699 305.243 113.866 304.735Z" fill="#455A64"/>
<path d="M110.023 308.046C110.023 307.962 110.652 308.046 110.875 308.898C110.939 309.139 110.944 309.391 110.891 309.634C110.837 309.877 110.727 310.104 110.568 310.296C110.349 310.528 110.063 310.686 109.75 310.749C109.437 310.812 109.113 310.775 108.821 310.645C108.535 310.538 108.287 310.348 108.11 310.099C107.933 309.85 107.835 309.553 107.829 309.248C107.848 308.999 107.926 308.759 108.058 308.548C108.189 308.336 108.369 308.159 108.584 308.032C109.31 307.599 109.841 307.962 109.785 308.032C109.73 308.102 109.31 308.032 108.877 308.465C108.76 308.566 108.665 308.69 108.597 308.83C108.53 308.969 108.492 309.121 108.486 309.276C108.51 309.448 108.579 309.611 108.687 309.748C108.794 309.885 108.935 309.991 109.097 310.056C109.258 310.122 109.434 310.143 109.606 310.119C109.779 310.095 109.942 310.025 110.079 309.918C110.182 309.803 110.261 309.668 110.312 309.522C110.362 309.375 110.383 309.22 110.372 309.066C110.33 308.395 109.967 308.144 110.023 308.046Z" fill="#455A64"/>
<path d="M74.7495 313.97C74.7495 313.858 75.9653 314.375 77.9498 314.655C80.5321 315.011 83.1628 314.649 85.5523 313.607C87.9256 312.526 89.9491 310.803 91.394 308.633C92.5259 306.97 92.9033 305.754 93.0291 305.838C92.8795 306.95 92.4727 308.012 91.8412 308.94C90.4475 311.302 88.3536 313.172 85.8497 314.291C83.3457 315.41 80.5556 315.723 77.866 315.186C76.744 315.039 75.6746 314.622 74.7495 313.97Z" fill="#455A64"/>
<path d="M137.023 304.735C137.149 304.735 137.177 305.769 137.652 307.306C138.277 309.307 139.431 311.103 140.992 312.504C142.579 313.875 144.513 314.784 146.582 315.13C148.175 315.41 149.195 315.298 149.209 315.424C148.344 315.728 147.416 315.805 146.512 315.647C144.289 315.433 142.189 314.526 140.509 313.054C138.829 311.583 137.654 309.621 137.149 307.445C136.878 306.567 136.835 305.634 137.023 304.735Z" fill="#455A64"/>
<path d="M158.126 310.449L75.5322 304.734L78.3273 265.275V243.226L70.3055 255.62L45.4575 233.948L72.2481 199.016C76.7848 194.279 82.3645 190.667 88.5431 188.466C91.8277 187.293 95.2734 186.633 98.759 186.51C106.789 189.053 115.409 189.053 123.439 186.51C131.031 187.199 138.541 188.602 145.87 190.702L177.146 199.155L166.86 237.511L147.966 231.153C147.966 231.153 158.307 302.471 158.126 310.449Z" fill="#52B6EC"/>
<path d="M77.6143 244.497C78.2629 242.808 79.1372 241.215 80.2136 239.76C81.0858 238.178 82.1618 236.717 83.414 235.415C82.7638 237.1 81.8945 238.693 80.8285 240.152C79.9534 241.735 78.8726 243.197 77.6143 244.497Z" fill="#263238"/>
<g opacity="0.6">
<path opacity="0.6" d="M176.014 199.505C176.014 199.7 152.843 199.868 124.305 199.868C95.7681 199.868 72.5972 199.7 72.5972 199.505C72.5972 199.309 95.7541 199.141 124.305 199.141C152.857 199.141 176.014 199.309 176.014 199.505Z" fill="white"/>
</g>
<g opacity="0.6">
<path opacity="0.6" d="M171.011 217.334C171.011 217.544 146.023 217.697 115.194 217.697C84.3645 217.697 59.293 217.544 59.293 217.334C59.293 217.124 84.2807 216.971 115.194 216.971C146.107 216.971 171.011 217.138 171.011 217.334Z" fill="white"/>
</g>
<g opacity="0.6">
<path opacity="0.6" d="M149.279 236.952C149.279 237.162 126.919 237.315 99.332 237.315C71.7449 237.315 49.3706 237.162 49.3706 236.952C49.3706 236.742 71.7309 236.533 99.2901 236.533C126.849 236.533 149.279 236.756 149.279 236.952Z" fill="white"/>
</g>
<g opacity="0.6">
<path opacity="0.6" d="M151.935 258.303C151.935 258.498 135.472 258.666 115.194 258.666C94.9157 258.666 78.439 258.498 78.439 258.303C78.439 258.107 94.8878 257.939 115.194 257.939C135.5 257.939 151.935 258.107 151.935 258.303Z" fill="white"/>
</g>
<g opacity="0.6">
<path opacity="0.6" d="M154.045 280.449C154.045 280.645 137.163 280.813 116.312 280.813C95.4607 280.813 78.5786 280.645 78.5786 280.449C78.5786 280.254 95.4607 280.086 116.312 280.086C137.163 280.086 154.045 280.254 154.045 280.449Z" fill="white"/>
</g>
<g opacity="0.6">
<path opacity="0.6" d="M157.455 300.808C157.455 301.004 139.175 301.171 116.619 301.171C94.0633 301.171 75.7976 301.004 75.7976 300.808C75.7976 300.612 94.0772 300.445 116.619 300.445C139.161 300.445 157.455 300.556 157.455 300.808Z" fill="white"/>
</g>
</svg>
