<svg width="10" height="16" viewBox="0 0 10 16" fill="none" xmlns="http://www.w3.org/2000/svg">
<path d="M8.4001 0C8.95238 0 9.4001 0.447715 9.4001 1V2.2C9.4001 2.75228 8.95238 3.2 8.4001 3.2H7.0001C6.4481 3.2 6.2001 3.848 6.2001 4.4V6.4H7.6001C8.15238 6.4 8.6001 6.84772 8.6001 7.4V8.6C8.6001 9.15228 8.15238 9.6 7.6001 9.6H6.2001V15C6.2001 15.5523 5.75238 16 5.2001 16H4.0001C3.44781 16 3.0001 15.5523 3.0001 15V9.6H1.6001C1.04781 9.6 0.600098 9.15229 0.600098 8.6V7.4C0.600098 6.84772 1.04781 6.4 1.6001 6.4H3.0001V3.2C3.0001 1.43269 4.43279 0 6.2001 0H8.4001Z" fill="white"/>
<mask id="mask0_1_124" style="mask-type:luminance" maskUnits="userSpaceOnUse" x="0" y="0" width="10" height="16">
<path d="M8.4001 0C8.95238 0 9.4001 0.447715 9.4001 1V2.2C9.4001 2.75228 8.95238 3.2 8.4001 3.2H7.0001C6.4481 3.2 6.2001 3.848 6.2001 4.4V6.4H7.6001C8.15238 6.4 8.6001 6.84772 8.6001 7.4V8.6C8.6001 9.15228 8.15238 9.6 7.6001 9.6H6.2001V15C6.2001 15.5523 5.75238 16 5.2001 16H4.0001C3.44781 16 3.0001 15.5523 3.0001 15V9.6H1.6001C1.04781 9.6 0.600098 9.15229 0.600098 8.6V7.4C0.600098 6.84772 1.04781 6.4 1.6001 6.4H3.0001V3.2C3.0001 1.43269 4.43279 0 6.2001 0H8.4001Z" fill="white"/>
</mask>
<g mask="url(#mask0_1_124)">
</g>
</svg>
