<svg width="144" height="144" viewBox="0 0 144 144" fill="none" xmlns="http://www.w3.org/2000/svg">
<path d="M82.5 42H78V30C78 13.458 64.542 0 48 0C31.458 0 18 13.458 18 30V42H13.5C6.06 42 0 48.06 0 55.5V106.5C0 113.94 6.06 120 13.5 120H72.3C72.9 116.58 74.64 113.52 77.04 111.12C73.08 105.72 72.24 98.28 75.66 91.98C80.28 83.4 87.48 76.8 96 72.96V55.5C96 48.06 89.94 42 82.5 42ZM30 30C30 20.076 38.076 12 48 12C57.924 12 66 20.076 66 30V42H30V30Z" fill="white" fill-opacity="0.8"/>
<path d="M139.356 119.28C136.44 117.708 132.804 118.788 131.226 121.698C127.782 128.052 121.182 132 114 132C110.334 132 106.86 130.89 103.824 129.036L106.68 126.18C107.964 124.896 108.354 122.958 107.658 121.278C106.962 119.598 105.318 118.5 103.5 118.5H88.5C86.016 118.5 84 120.516 84 123V138C84 139.818 85.098 141.462 86.778 142.158C87.336 142.392 87.918 142.5 88.5 142.5C89.67 142.5 90.822 142.044 91.68 141.18L95.118 137.742C100.512 141.768 107.106 144 114 144C125.592 144 136.236 137.646 141.774 127.416C143.352 124.5 142.272 120.864 139.356 119.28Z" fill="white" fill-opacity="0.8"/>
<path d="M141.222 82.842C139.542 82.146 137.604 82.53 136.32 83.82L132.882 87.258C127.488 83.232 120.894 81 114 81C102.384 81 91.7399 87.384 86.2139 97.656C84.6479 100.578 85.7399 104.214 88.6559 105.78C89.5619 106.266 90.5339 106.494 91.4939 106.494C93.6299 106.494 95.6999 105.348 96.7859 103.338C100.212 96.96 106.812 93 114 93C117.666 93 121.14 94.11 124.176 95.964L121.32 98.82C120.036 100.104 119.646 102.042 120.342 103.722C121.038 105.402 122.682 106.5 124.5 106.5H139.5C141.984 106.5 144 104.484 144 102V87C144 85.182 142.902 83.538 141.222 82.842Z" fill="white" fill-opacity="0.8"/>
</svg>
