<svg width="159" height="174" viewBox="0 0 159 174" fill="none" xmlns="http://www.w3.org/2000/svg">
<path d="M31.8554 156.102C66.4077 156.102 90.1352 174 106.784 174C123.434 174 158.4 164.429 158.4 87.8367C158.4 11.2443 111.36 0 93.0474 0C7.29372 0 -29.3365 156.102 31.8554 156.102Z" fill="transparent"/>
<path d="M79.9248 138.204C108.203 138.204 131.126 115.28 131.126 87.0025C131.126 58.7247 108.203 35.801 79.9248 35.801C51.6471 35.801 28.7234 58.7247 28.7234 87.0025C28.7234 115.28 51.6471 138.204 79.9248 138.204Z" fill="#2FDF84"/>
<path d="M39.9627 87.0025C39.9627 60.6275 59.9138 38.9231 85.5445 36.1257C83.6963 35.9209 81.828 35.801 79.9248 35.801C51.6467 35.801 28.7234 58.7243 28.7234 87.0025C28.7234 115.281 51.6467 138.204 79.9248 138.204C81.828 138.204 83.6963 138.084 85.5445 137.879C59.9138 135.082 39.9627 113.377 39.9627 87.0025Z" fill="#00B871"/>
<path d="M0 83.8804H9.99053V88.8756H0V83.8804Z" fill="#A4AFC1"/>
<path d="M16.2346 96.3687H21.2299V106.359H16.2346V96.3687Z" fill="#A4AFC1"/>
<path d="M16.2346 67.6458H21.2299V77.6363H16.2346V67.6458Z" fill="#A4AFC1"/>
<path d="M23.7285 83.2561H96.1598V90.749H23.7285V83.2561Z" fill="black"/>
<path d="M78.826 109.631L73.531 104.336L90.8646 87.0024L73.531 69.6689L78.831 64.3689L98.812 84.3499C100.276 85.8136 100.276 88.1863 98.812 89.6499L78.826 109.631Z" fill="black"/>
<path d="M79.5377 141.95C56.8043 141.95 36.7333 128.273 28.3962 107.103L35.3696 104.361C42.5678 122.644 59.9064 134.457 79.5377 134.457C105.703 134.457 126.993 113.168 126.993 87.0023C126.993 60.8371 105.703 39.5473 79.5377 39.5473C59.9064 39.5473 42.5678 51.3611 35.3696 69.6388L28.3962 66.8964C36.7333 45.7315 56.8043 32.0544 79.5377 32.0544C109.834 32.0544 134.486 56.7061 134.486 87.0023C134.486 117.299 109.834 141.95 79.5377 141.95Z" fill="black"/>
</svg>
