<svg width="107" height="126" viewBox="0 0 107 126" fill="none" xmlns="http://www.w3.org/2000/svg">
<path d="M103.278 20.4026L55.0436 0.376247C53.8353 -0.125293 52.4771 -0.125539 51.269 0.376247L3.03458 20.4026C1.19749 21.1655 0 22.9591 0 24.9482V49.2931C0 82.8143 20.2607 112.967 51.2963 125.635C52.4884 126.122 53.8239 126.122 55.0163 125.635C86.0514 112.968 106.313 82.8145 106.313 49.2931V24.9482C106.313 22.9591 105.115 21.1655 103.278 20.4026ZM96.4688 49.2931C96.4688 77.7895 79.7344 104.022 53.1563 115.732C27.2884 104.335 9.84376 78.5618 9.84376 49.2931V28.2341L53.1563 10.251L96.4688 28.2341V49.2931ZM47.7161 65.8833L68.8714 44.7283C70.7934 42.8063 73.9096 42.806 75.8319 44.7283C77.7541 46.6505 77.7539 49.7668 75.8316 51.6888L51.1964 76.324C49.2739 78.2465 46.1576 78.2458 44.2359 76.324L30.4807 62.5689C28.5585 60.6466 28.5585 57.5303 30.4807 55.6083C32.4029 53.6863 35.5192 53.6861 37.4412 55.6083L47.7161 65.8833Z" fill="#00B871"/>
</svg>
