<svg width="25" height="25" viewBox="0 0 25 25" fill="none" xmlns="http://www.w3.org/2000/svg">
<path d="M5.5083 13.6154H16.6783L11.7983 18.4954C11.4083 18.8854 11.4083 19.5254 11.7983 19.9154C12.1883 20.3054 12.8183 20.3054 13.2083 19.9154L19.7983 13.3254C20.1883 12.9354 20.1883 12.3054 19.7983 11.9154L13.2183 5.31543C13.0315 5.12818 12.7778 5.02295 12.5133 5.02295C12.2488 5.02295 11.9951 5.12818 11.8083 5.31543C11.4183 5.70543 11.4183 6.33543 11.8083 6.72543L16.6783 11.6154H5.5083C4.9583 11.6154 4.5083 12.0654 4.5083 12.6154C4.5083 13.1654 4.9583 13.6154 5.5083 13.6154Z" fill="#37474F"/>
<mask id="mask0_679_47" style="mask-type:luminance" maskUnits="userSpaceOnUse" x="4" y="5" width="17" height="16">
<path d="M5.5083 13.6154H16.6783L11.7983 18.4954C11.4083 18.8854 11.4083 19.5254 11.7983 19.9154C12.1883 20.3054 12.8183 20.3054 13.2083 19.9154L19.7983 13.3254C20.1883 12.9354 20.1883 12.3054 19.7983 11.9154L13.2183 5.31543C13.0315 5.12818 12.7778 5.02295 12.5133 5.02295C12.2488 5.02295 11.9951 5.12818 11.8083 5.31543C11.4183 5.70543 11.4183 6.33543 11.8083 6.72543L16.6783 11.6154H5.5083C4.9583 11.6154 4.5083 12.0654 4.5083 12.6154C4.5083 13.1654 4.9583 13.6154 5.5083 13.6154Z" fill="white"/>
</mask>
<g mask="url(#mask0_679_47)">
</g>
</svg>
